<svg xmlns="http://www.w3.org/2000/svg" xmlns:xlink="http://www.w3.org/1999/xlink" version="1.1" viewBox="0 0 1858 2208" style="background: #ffffff"><defs joint-selector="defs"></defs><g joint-selector="layers"  transform="matrix(1,0,0,1,0,0)"><g ></g><g ><g   id="j_206"  transform="translate(20,2163)"><g id="v-2322"><text  id="v-2323" font-size="22px" xml:space="preserve" y="0.8em" font-weight="normal" text-anchor="start" fill="#aaaaaa" pointer-events="none" font-family="Open Sans"><tspan dy="0" >Tuesday, January 23, 2024 at 3:47 PM Central European Standard Time</tspan></text></g></g><g   id="j_205"  transform="translate(20,2132)"><g id="v-2320"><text  id="v-2321" font-size="22px" xml:space="preserve" y="0.8em" font-weight="normal" text-anchor="start" fill="#aaaaaa" pointer-events="none" font-family="Open Sans"><tspan dy="0" >The system context diagram for the Metabase.</tspan></text></g></g><g   id="j_204"  transform="translate(20,2088)"><g id="v-2318"><text  id="v-2319" font-size="36px" xml:space="preserve" y="0.8em" font-weight="normal" text-anchor="start" fill="#000000" pointer-events="none" font-family="Open Sans"><tspan dy="0" >[System Context] Metabase</tspan></text></g></g><g   id="j_192"  transform="translate(1079,279)" style=""><g  id="v-2176" style="opacity: 1;"><rect  x="0" y="160" width="400" height="240" rx="70" id="v-2178" stroke="#c7c7c7" stroke-width="2" pointer-events="visiblePainted" fill="#dddddd" style="fill: rgb(221, 221, 221); stroke: rgb(199, 199, 199);"></rect><circle  cx="200" cy="88.88888888888889" r="88.88888888888889" id="v-2177" stroke="#c7c7c7" stroke-width="2" pointer-events="visiblePainted" fill="#dddddd" style="fill: rgb(221, 221, 221); stroke: rgb(199, 199, 199);"></circle><line  x1="80" y1="266.6666666666667" x2="80" y2="400" id="v-2184" stroke="#c7c7c7" stroke-width="2" style="stroke: rgb(199, 199, 199);"></line><line  x1="320" y1="266.6666666666667" x2="320" y2="400" id="v-2185" stroke="#c7c7c7" stroke-width="2" style="stroke: rgb(199, 199, 199);"></line><text  id="v-2179" font-size="32" xml:space="preserve" y="0.8em" font-weight="bold" text-anchor="middle" pointer-events="visible" font-family="Open Sans" fill="#08427b" transform="matrix(1,0,0,1,200,245.6)" style="fill: rgb(8, 66, 123);"><tspan dy="0" >Human</tspan></text><text  id="v-2180" font-size="15" xml:space="preserve" y="0.8em" text-anchor="middle" font-family="Open Sans" fill="#08427b" transform="matrix(1,0,0,1,200,285.6)" style="fill: rgb(8, 66, 123);"><tspan dy="0" >[Person]</tspan></text><text  id="v-2181" font-size="22" xml:space="preserve" display="none" y="0.8em" text-anchor="middle" font-family="Open Sans" fill="#08427b" transform="matrix(1,0,0,1,200,314.4)" style="fill: rgb(8, 66, 123);"><tspan dy="0" style="fill-opacity: 0; stroke-opacity: 0;" >-</tspan></text><g  id="v-2182" font-weight="normal" text-anchor="middle" color="#08427b" transform="matrix(1,0,0,1,197.5,324.4)" display="none" style="fill: rgb(8, 66, 123);"><g ></g><g ></g><g ></g><g ></g></g><image  id="v-2183"></image></g></g><g   id="j_194"  transform="translate(309,309)" style=""><g id="v-2199"><rect  id="v-2200" width="490" height="394" rx="0" ry="0" fill="#ffffff" stroke="#444444" stroke-width="1" stroke-dasharray="5,5" pointer-events="none"></rect><text  id="v-2201" font-size="24px" xml:space="preserve" y="379" font-weight="normal" fill="#444444" text-anchor="start" pointer-events="visible" font-family="Open Sans" transform="matrix(1,0,0,1,15,0)"><tspan dy="0" >Clients</tspan></text><text  id="v-2202" font-size="17px" xml:space="preserve" display="none" y="379" font-weight="normal" fill="#444444" text-anchor="start" pointer-events="visible" font-family="Open Sans" transform="matrix(1,0,0,1,15,0)"><tspan dy="0" style="fill-opacity: 0; stroke-opacity: 0;" >-</tspan></text><image  id="v-2203" pointer-events="visible"></image></g></g><g   id="j_193"  transform="translate(329,329)" style=""><g  id="v-2192" style="opacity: 1;"><rect  id="v-2193" rx="1" ry="1" stroke="#c7c7c7" stroke-width="2" pointer-events="visiblePainted" fill="#dddddd" width="450" height="300" style="fill: rgb(221, 221, 221); stroke: rgb(199, 199, 199);"></rect><text  id="v-2194" font-size="34" xml:space="preserve" y="0.8em" font-weight="bold" text-anchor="middle" pointer-events="visible" font-family="Open Sans" fill="#000000" transform="matrix(1,0,0,1,225,31.9)" style="fill: rgb(0, 0, 0);"><tspan dy="0" >??? Berkeley Lab</tspan><tspan dy="1.2em" x="0" >WINDOW ???</tspan></text><text  id="v-2195" font-size="17" xml:space="preserve" y="0.8em" text-anchor="middle" font-family="Open Sans" fill="#000000" transform="matrix(1,0,0,1,225,116.9)" style="fill: rgb(0, 0, 0);"><tspan dy="0" >[Software System]</tspan></text><text  id="v-2196" font-size="24" xml:space="preserve" y="0.8em" text-anchor="middle" font-family="Open Sans" fill="#000000" transform="matrix(1,0,0,1,225,148.1)" style="fill: rgb(0, 0, 0);"><tspan dy="0" >A publicly available computer</tspan><tspan dy="1.2em" x="0" >program for calculating total</tspan><tspan dy="1.2em" x="0" >window thermal performance</tspan><tspan dy="1.2em" x="0" >indices.</tspan></text><g  id="v-2197" color="#000000" transform="matrix(1,0,0,1,222.5,278.1)" display="none" style="fill: rgb(0, 0, 0);"><g ></g><g ></g><g ></g><g ></g></g><image  id="v-2198"></image></g></g><g   id="j_196"  transform="translate(671,959)" style=""><g id="v-2214"><rect  id="v-2215" width="490" height="394" rx="0" ry="0" fill="#ffffff" stroke="#444444" stroke-width="1" stroke-dasharray="5,5" pointer-events="none"></rect><text  id="v-2216" font-size="24px" xml:space="preserve" y="379" font-weight="normal" fill="#444444" text-anchor="start" pointer-events="visible" font-family="Open Sans" transform="matrix(1,0,0,1,15,0)"><tspan dy="0" >Metabase</tspan></text><text  id="v-2217" font-size="17px" xml:space="preserve" display="none" y="379" font-weight="normal" fill="#444444" text-anchor="start" pointer-events="visible" font-family="Open Sans" transform="matrix(1,0,0,1,15,0)"><tspan dy="0" style="fill-opacity: 0; stroke-opacity: 0;" >-</tspan></text><image  id="v-2218" pointer-events="visible"></image></g></g><g   id="j_195"  transform="translate(691,979)" style=""><g  id="v-2207" style="opacity: 1;"><rect  id="v-2208" rx="1" ry="1" stroke="#c7c7c7" stroke-width="2" pointer-events="visiblePainted" fill="#dddddd" width="450" height="300" style="fill: rgb(221, 221, 221); stroke: rgb(199, 199, 199);"></rect><text  id="v-2209" font-size="34" xml:space="preserve" y="0.8em" font-weight="bold" text-anchor="middle" pointer-events="visible" font-family="Open Sans" fill="#000000" transform="matrix(1,0,0,1,225,38.1)" style="fill: rgb(0, 0, 0);"><tspan dy="0" >Metabase</tspan></text><text  id="v-2210" font-size="17" xml:space="preserve" y="0.8em" text-anchor="middle" font-family="Open Sans" fill="#000000" transform="matrix(1,0,0,1,225,80.6)" style="fill: rgb(0, 0, 0);"><tspan dy="0" >[Software System]</tspan></text><text  id="v-2211" font-size="24" xml:space="preserve" y="0.8em" text-anchor="middle" font-family="Open Sans" fill="#000000" transform="matrix(1,0,0,1,225,111.9)" style="fill: rgb(0, 0, 0);"><tspan dy="0" >Web Application managing</tspan><tspan dy="1.2em" x="0" >identifiers in the format UUID that</tspan><tspan dy="1.2em" x="0" >are unique across databases and</tspan><tspan dy="1.2em" x="0" >broadcasting data queries to</tspan><tspan dy="1.2em" x="0" >registered databases.</tspan></text><g  id="v-2212" color="#000000" transform="matrix(1,0,0,1,210,271.9)" display="none" style="fill: rgb(0, 0, 0);"><g  transform="translate(5 0)"><svg xmlns="http://www.w3.org/2000/svg" width="20" height="20" fill="currentColor" viewBox="0 0 16 16"><path fill-rule="evenodd" d="M6.5 12a5.5 5.5 0 1 0 0-11 5.5 5.5 0 0 0 0 11zM13 6.5a6.5 6.5 0 1 1-13 0 6.5 6.5 0 0 1 13 0z"></path><path d="M10.344 11.742c.03.04.062.078.098.115l3.85 3.85a1 1 0 0 0 1.415-1.414l-3.85-3.85a1.007 1.007 0 0 0-.115-.1 6.538 6.538 0 0 1-1.398 1.4z"></path><path fill-rule="evenodd" d="M6.5 3a.5.5 0 0 1 .5.5V6h2.5a.5.5 0 0 1 0 1H7v2.5a.5.5 0 0 1-1 0V7H3.5a.5.5 0 0 1 0-1H6V3.5a.5.5 0 0 1 .5-.5z"></path></svg></g><g ></g><g ></g><g ></g></g><image  id="v-2213"></image></g></g><g   id="j_198"  transform="translate(309,1559)" style=""><g id="v-2226"><rect  id="v-2227" width="1240" height="394" rx="0" ry="0" fill="#ffffff" stroke="#444444" stroke-width="1" stroke-dasharray="5,5" pointer-events="none"></rect><text  id="v-2228" font-size="24px" xml:space="preserve" y="379" font-weight="normal" fill="#444444" text-anchor="start" pointer-events="visible" font-family="Open Sans" transform="matrix(1,0,0,1,15,0)"><tspan dy="0" >Databases</tspan></text><text  id="v-2229" font-size="17px" xml:space="preserve" display="none" y="379" font-weight="normal" fill="#444444" text-anchor="start" pointer-events="visible" font-family="Open Sans" transform="matrix(1,0,0,1,15,0)"><tspan dy="0" style="fill-opacity: 0; stroke-opacity: 0;" >-</tspan></text><image  id="v-2230" pointer-events="visible"></image></g></g><g   id="j_197"  transform="translate(1079,1579)" style=""><g  id="v-2219" style="opacity: 1;"><rect  id="v-2220" rx="1" ry="1" stroke="#c7c7c7" stroke-width="2" pointer-events="visiblePainted" fill="#dddddd" width="450" height="300" style="fill: rgb(221, 221, 221); stroke: rgb(199, 199, 199);"></rect><text  id="v-2221" font-size="34" xml:space="preserve" y="0.8em" font-weight="bold" text-anchor="middle" pointer-events="visible" font-family="Open Sans" fill="#000000" transform="matrix(1,0,0,1,225,113.1)" style="fill: rgb(0, 0, 0);"><tspan dy="0" >IGSDB</tspan></text><text  id="v-2222" font-size="17" xml:space="preserve" y="0.8em" text-anchor="middle" font-family="Open Sans" fill="#000000" transform="matrix(1,0,0,1,225,155.6)" style="fill: rgb(0, 0, 0);"><tspan dy="0" >[Software System]</tspan></text><text  id="v-2223" font-size="24" xml:space="preserve" display="none" y="0.8em" text-anchor="middle" font-family="Open Sans" fill="#000000" transform="matrix(1,0,0,1,225,186.9)" style="fill: rgb(0, 0, 0);"><tspan dy="0" style="fill-opacity: 0; stroke-opacity: 0;" >-</tspan></text><g  id="v-2224" color="#000000" transform="matrix(1,0,0,1,222.5,196.9)" display="none" style="fill: rgb(0, 0, 0);"><g ></g><g ></g><g ></g><g ></g></g><image  id="v-2225"></image></g></g><g   id="j_199"  transform="translate(329,1579)" style=""><g  id="v-2237" style="opacity: 1;"><rect  id="v-2238" rx="1" ry="1" stroke="#c7c7c7" stroke-width="2" pointer-events="visiblePainted" fill="#dddddd" width="450" height="300" style="fill: rgb(221, 221, 221); stroke: rgb(199, 199, 199);"></rect><text  id="v-2239" font-size="34" xml:space="preserve" y="0.8em" font-weight="bold" text-anchor="middle" pointer-events="visible" font-family="Open Sans" fill="#000000" transform="matrix(1,0,0,1,225,83.1)" style="fill: rgb(0, 0, 0);"><tspan dy="0" >TestLab Solar Facades</tspan></text><text  id="v-2240" font-size="17" xml:space="preserve" y="0.8em" text-anchor="middle" font-family="Open Sans" fill="#000000" transform="matrix(1,0,0,1,225,125.6)" style="fill: rgb(0, 0, 0);"><tspan dy="0" >[Software System]</tspan></text><text  id="v-2241" font-size="24" xml:space="preserve" y="0.8em" text-anchor="middle" font-family="Open Sans" fill="#000000" transform="matrix(1,0,0,1,225,156.9)" style="fill: rgb(0, 0, 0);"><tspan dy="0" >Deployment of the database</tspan><tspan dy="1.2em" x="0" >reference implementation.</tspan></text><g  id="v-2242" color="#000000" transform="matrix(1,0,0,1,222.5,226.9)" display="none" style="fill: rgb(0, 0, 0);"><g ></g><g ></g><g ></g><g ></g></g><image  id="v-2243"></image></g></g><g   id="j_200" ><path  stroke="#707070" d="M 1167 679 L 1000 979" id="v-2259" stroke-width="2" stroke-dasharray="30 30" fill="none" style="opacity: 1;"></path><path  fill="black" stroke="black" d="M 0 0 0 0" transform="matrix(-0.48758387507724404,0.873076150610391,-0.873076150610391,-0.48758387507724404,1167.31005859375,679)"></path><path  fill="#707070" stroke="#707070" d="M 20 0 L 0 10 L 20 20 z" id="v-2261" transform="matrix(0.4875841075914701,-0.8730760207589197,0.8730760207589197,0.4875841075914701,991.0392117047772,974.1241452058935)" style="opacity: 1;"></path><path  d="M 1167 679 L 1000 979" id="v-2260" fill="none" style="cursor: auto; pointer-events: visiblepainted;"></path><g ><g id="v-2250"  label-idx="0" cursor="move" transform="matrix(1,0,0,1,1083.5,829)" style="cursor: default; opacity: 1;"><rect joint-selector="rect" id="v-2254" fill="#ffffff" rx="3" ry="3" stroke="#ffffff" stroke-width="20px" pointer-events="none" width="110.37429809570312" height="61.6938533782959" transform="matrix(1,0,0,1,-55.2,-30.9)"></rect><text joint-selector="text" id="v-2253" font-size="24px" xml:space="preserve" y="0.8em" fill="#707070" text-anchor="middle" pointer-events="none" font-family="Open Sans" font-weight="normal" transform="matrix(1,0,0,1,0,-25.4)"><tspan dy="0" >Uses Web</tspan><tspan dy="1.2em" x="0" >Frontend</tspan></text></g><g id="v-2251"  label-idx="1" cursor="move" transform="matrix(1,0,0,1,1083.5,871)" style="cursor: default; opacity: 1;"><rect joint-selector="rect" id="v-2256" fill="#ffffff" rx="3" ry="3" pointer-events="none" width="510.5828552246094" height="24.67038917541504" transform="matrix(1,0,0,1,-255.3,-12.3)"></rect><text joint-selector="text" id="v-2255" font-size="17px" xml:space="preserve" y="0.8em" fill="#707070" text-anchor="middle" pointer-events="none" font-family="Open Sans" font-weight="normal" transform="matrix(1,0,0,1,0,-6.7)"><tspan dy="0" >[Web Browser (HTTPS, HTML, JavaScript, Cascading Style Sheets)]</tspan></text></g><g id="v-2252"  label-idx="2" cursor="move" transform="matrix(1,0,0,1,1073.5,880.25)" style="cursor: default; opacity: 1;"><rect joint-selector="rect" id="v-2258" fill="#ffffff" rx="3" ry="3"  width="0" height="0" transform="matrix(1,0,0,1,0,0)" display="none"></rect><text joint-selector="text" id="v-2257" fill="#000000" font-size="14" text-anchor="middle" pointer-events="none"></text></g></g><g  display="none" style="display: none;"></g><g  id="v-2263" display="none"><g  id="v-2248"><path  end="source" d="M 26 0 L 0 13 L 26 26 z"></path></g><g  id="v-2249"><path  end="target" d="M 26 0 L 0 13 L 26 26 z"></path></g></g><g  id="v-2262" display="none"><g  id="v-2247" transform="translate(1147.5446153959274, 713.9497927019263) "><g  event="remove"><circle r="11"></circle><path transform="scale(.8) translate(-16, -16)" d="M24.778,21.419 19.276,15.917 24.777,10.415 21.949,7.585 16.447,13.087 10.945,7.585 8.117,10.415 13.618,15.917 8.116,21.419 10.946,24.248 16.447,18.746 21.948,24.248z"></path><title>Remove link.</title></g><g  event="link:options"><circle r="11" transform="translate(25)"></circle><path fill="white" transform="scale(.55) translate(29, -16)" d="M31.229,17.736c0.064-0.571,0.104-1.148,0.104-1.736s-0.04-1.166-0.104-1.737l-4.377-1.557c-0.218-0.716-0.504-1.401-0.851-2.05l1.993-4.192c-0.725-0.91-1.549-1.734-2.458-2.459l-4.193,1.994c-0.647-0.347-1.334-0.632-2.049-0.849l-1.558-4.378C17.165,0.708,16.588,0.667,16,0.667s-1.166,0.041-1.737,0.105L12.707,5.15c-0.716,0.217-1.401,0.502-2.05,0.849L6.464,4.005C5.554,4.73,4.73,5.554,4.005,6.464l1.994,4.192c-0.347,0.648-0.632,1.334-0.849,2.05l-4.378,1.557C0.708,14.834,0.667,15.412,0.667,16s0.041,1.165,0.105,1.736l4.378,1.558c0.217,0.715,0.502,1.401,0.849,2.049l-1.994,4.193c0.725,0.909,1.549,1.733,2.459,2.458l4.192-1.993c0.648,0.347,1.334,0.633,2.05,0.851l1.557,4.377c0.571,0.064,1.148,0.104,1.737,0.104c0.588,0,1.165-0.04,1.736-0.104l1.558-4.377c0.715-0.218,1.399-0.504,2.049-0.851l4.193,1.993c0.909-0.725,1.733-1.549,2.458-2.458l-1.993-4.193c0.347-0.647,0.633-1.334,0.851-2.049L31.229,17.736zM16,20.871c-2.69,0-4.872-2.182-4.872-4.871c0-2.69,2.182-4.872,4.872-4.872c2.689,0,4.871,2.182,4.871,4.872C20.871,18.689,18.689,20.871,16,20.871z"></path><title>Link options.</title></g></g></g></g><g   id="j_201" ><path  stroke="#707070" d="M 826 1279 L 645 1579" id="v-2276" stroke-width="2" stroke-dasharray="30 30" fill="none" style="opacity: 1;"></path><path  fill="black" stroke="black" d="M 0 0 0 0" transform="matrix(-0.5165928226604414,0.8562311928303695,-0.8562311928303695,-0.5165928226604414,825.5,1279)"></path><path  fill="#707070" stroke="#707070" d="M 20 0 L 0 10 L 20 20 z" id="v-2278" transform="matrix(0.516592708646357,-0.8562312616188572,0.8562312616188572,0.516592708646357,635.9377148871914,1573.8341296703502)" style="opacity: 1;"></path><path  d="M 826 1279 L 645 1579" id="v-2277" fill="none" style="cursor: auto; pointer-events: visiblepainted;"></path><g ><g id="v-2267"  label-idx="0" cursor="move" transform="matrix(1,0,0,1,735.5,1429)" style="cursor: default; opacity: 1;"><rect joint-selector="rect" id="v-2271" fill="#ffffff" rx="3" ry="3" stroke="#ffffff" stroke-width="20px" pointer-events="none" width="102.53630828857422" height="32.89385223388672" transform="matrix(1,0,0,1,-51.3,-16.5)"></rect><text joint-selector="text" id="v-2270" font-size="24px" xml:space="preserve" y="0.8em" fill="#707070" text-anchor="middle" pointer-events="none" font-family="Open Sans" font-weight="normal" transform="matrix(1,0,0,1,0,-11)"><tspan dy="0" >Requests</tspan></text></g><g id="v-2268"  label-idx="1" cursor="move" transform="matrix(1,0,0,1,735.5,1456)" style="cursor: default; opacity: 1;"><rect joint-selector="rect" id="v-2273" fill="#ffffff" rx="3" ry="3" pointer-events="none" width="435.8863830566406" height="24.67038917541504" transform="matrix(1,0,0,1,-217.9,-12.3)"></rect><text joint-selector="text" id="v-2272" font-size="17px" xml:space="preserve" y="0.8em" fill="#707070" text-anchor="middle" pointer-events="none" font-family="Open Sans" font-weight="normal" transform="matrix(1,0,0,1,0,-6.7)"><tspan dy="0" >[GraphQL (HTTPS Post, Request/Response Body: JSON)]</tspan></text></g><g id="v-2269"  label-idx="2" cursor="move" transform="matrix(1,0,0,1,725.5,1465.25)" style="cursor: default; opacity: 1;"><rect joint-selector="rect" id="v-2275" fill="#ffffff" rx="3" ry="3"  width="0" height="0" transform="matrix(1,0,0,1,0,0)" display="none"></rect><text joint-selector="text" id="v-2274" fill="#000000" font-size="14" text-anchor="middle" pointer-events="none"></text></g></g><g  display="none" style="display: none;"></g><g  id="v-2280" display="none"><g  id="v-2265"><path  end="source" d="M 26 0 L 0 13 L 26 26 z"></path></g><g  id="v-2266"><path  end="target" d="M 26 0 L 0 13 L 26 26 z"></path></g></g><g  id="v-2279" display="none"><g  id="v-2264" transform="translate(805.3362871811511, 1313.2492477660478) "><g  event="remove"><circle r="11"></circle><path transform="scale(.8) translate(-16, -16)" d="M24.778,21.419 19.276,15.917 24.777,10.415 21.949,7.585 16.447,13.087 10.945,7.585 8.117,10.415 13.618,15.917 8.116,21.419 10.946,24.248 16.447,18.746 21.948,24.248z"></path><title>Remove link.</title></g><g  event="link:options"><circle r="11" transform="translate(25)"></circle><path fill="white" transform="scale(.55) translate(29, -16)" d="M31.229,17.736c0.064-0.571,0.104-1.148,0.104-1.736s-0.04-1.166-0.104-1.737l-4.377-1.557c-0.218-0.716-0.504-1.401-0.851-2.05l1.993-4.192c-0.725-0.91-1.549-1.734-2.458-2.459l-4.193,1.994c-0.647-0.347-1.334-0.632-2.049-0.849l-1.558-4.378C17.165,0.708,16.588,0.667,16,0.667s-1.166,0.041-1.737,0.105L12.707,5.15c-0.716,0.217-1.401,0.502-2.05,0.849L6.464,4.005C5.554,4.73,4.73,5.554,4.005,6.464l1.994,4.192c-0.347,0.648-0.632,1.334-0.849,2.05l-4.378,1.557C0.708,14.834,0.667,15.412,0.667,16s0.041,1.165,0.105,1.736l4.378,1.558c0.217,0.715,0.502,1.401,0.849,2.049l-1.994,4.193c0.725,0.909,1.549,1.733,2.459,2.458l4.192-1.993c0.648,0.347,1.334,0.633,2.05,0.851l1.557,4.377c0.571,0.064,1.148,0.104,1.737,0.104c0.588,0,1.165-0.04,1.736-0.104l1.558-4.377c0.715-0.218,1.399-0.504,2.049-0.851l4.193,1.993c0.909-0.725,1.733-1.549,2.458-2.458l-1.993-4.193c0.347-0.647,0.633-1.334,0.851-2.049L31.229,17.736zM16,20.871c-2.69,0-4.872-2.182-4.872-4.871c0-2.69,2.182-4.872,4.872-4.872c2.689,0,4.871,2.182,4.871,4.872C20.871,18.689,18.689,20.871,16,20.871z"></path><title>Link options.</title></g></g></g></g><g   id="j_202" ><path  stroke="#707070" d="M 1013 1279 L 1207 1579" id="v-2293" stroke-width="2" stroke-dasharray="30 30" fill="none" style="opacity: 1;"></path><path  fill="black" stroke="black" d="M 0 0 0 0" transform="matrix(0.5430191139330592,0.8397203355304401,-0.8397203355304401,0.5430191139330592,1013,1279)"></path><path  fill="#707070" stroke="#707070" d="M 20 0 L 0 10 L 20 20 z" id="v-2295" transform="matrix(-0.543019169840821,-0.839720299376754,0.839720299376754,-0.543019169840821,1198.6028129233907,1584.430177895301)" style="opacity: 1;"></path><path  d="M 1013 1279 L 1207 1579" id="v-2294" fill="none" style="cursor: auto; pointer-events: visiblepainted;"></path><g ><g id="v-2284"  label-idx="0" cursor="move" transform="matrix(1,0,0,1,1110,1429)" style="cursor: default; opacity: 1;"><rect joint-selector="rect" id="v-2288" fill="#ffffff" rx="3" ry="3" stroke="#ffffff" stroke-width="20px" pointer-events="none" width="102.53630828857422" height="32.89385223388672" transform="matrix(1,0,0,1,-51.3,-16.5)"></rect><text joint-selector="text" id="v-2287" font-size="24px" xml:space="preserve" y="0.8em" fill="#707070" text-anchor="middle" pointer-events="none" font-family="Open Sans" font-weight="normal" transform="matrix(1,0,0,1,0,-11)"><tspan dy="0" >Requests</tspan></text></g><g id="v-2285"  label-idx="1" cursor="move" transform="matrix(1,0,0,1,1110,1456)" style="cursor: default; opacity: 1;"><rect joint-selector="rect" id="v-2290" fill="#ffffff" rx="3" ry="3" pointer-events="none" width="82.62010955810547" height="24.67038917541504" transform="matrix(1,0,0,1,-41.3,-12.3)"></rect><text joint-selector="text" id="v-2289" font-size="17px" xml:space="preserve" y="0.8em" fill="#707070" text-anchor="middle" pointer-events="none" font-family="Open Sans" font-weight="normal" transform="matrix(1,0,0,1,0,-6.7)"><tspan dy="0" >[GraphQL]</tspan></text></g><g id="v-2286"  label-idx="2" cursor="move" transform="matrix(1,0,0,1,1100,1465.25)" style="cursor: default; opacity: 1;"><rect joint-selector="rect" id="v-2292" fill="#ffffff" rx="3" ry="3"  width="0" height="0" transform="matrix(1,0,0,1,0,0)" display="none"></rect><text joint-selector="text" id="v-2291" fill="#000000" font-size="14" text-anchor="middle" pointer-events="none"></text></g></g><g  display="none" style="display: none;"></g><g  id="v-2297" display="none"><g  id="v-2282"><path  end="source" d="M 26 0 L 0 13 L 26 26 z"></path></g><g  id="v-2283"><path  end="target" d="M 26 0 L 0 13 L 26 26 z"></path></g></g><g  id="v-2296" display="none"><g  id="v-2281" transform="translate(1034.7207655833326, 1312.588812757731) "><g  event="remove"><circle r="11"></circle><path transform="scale(.8) translate(-16, -16)" d="M24.778,21.419 19.276,15.917 24.777,10.415 21.949,7.585 16.447,13.087 10.945,7.585 8.117,10.415 13.618,15.917 8.116,21.419 10.946,24.248 16.447,18.746 21.948,24.248z"></path><title>Remove link.</title></g><g  event="link:options"><circle r="11" transform="translate(25)"></circle><path fill="white" transform="scale(.55) translate(29, -16)" d="M31.229,17.736c0.064-0.571,0.104-1.148,0.104-1.736s-0.04-1.166-0.104-1.737l-4.377-1.557c-0.218-0.716-0.504-1.401-0.851-2.05l1.993-4.192c-0.725-0.91-1.549-1.734-2.458-2.459l-4.193,1.994c-0.647-0.347-1.334-0.632-2.049-0.849l-1.558-4.378C17.165,0.708,16.588,0.667,16,0.667s-1.166,0.041-1.737,0.105L12.707,5.15c-0.716,0.217-1.401,0.502-2.05,0.849L6.464,4.005C5.554,4.73,4.73,5.554,4.005,6.464l1.994,4.192c-0.347,0.648-0.632,1.334-0.849,2.05l-4.378,1.557C0.708,14.834,0.667,15.412,0.667,16s0.041,1.165,0.105,1.736l4.378,1.558c0.217,0.715,0.502,1.401,0.849,2.049l-1.994,4.193c0.725,0.909,1.549,1.733,2.459,2.458l4.192-1.993c0.648,0.347,1.334,0.633,2.05,0.851l1.557,4.377c0.571,0.064,1.148,0.104,1.737,0.104c0.588,0,1.165-0.04,1.736-0.104l1.558-4.377c0.715-0.218,1.399-0.504,2.049-0.851l4.193,1.993c0.909-0.725,1.733-1.549,2.458-2.458l-1.993-4.193c0.347-0.647,0.633-1.334,0.851-2.049L31.229,17.736zM16,20.871c-2.69,0-4.872-2.182-4.872-4.871c0-2.69,2.182-4.872,4.872-4.872c2.689,0,4.871,2.182,4.871,4.872C20.871,18.689,18.689,20.871,16,20.871z"></path><title>Link options.</title></g></g></g></g><g   id="j_203" ><path  stroke="#707070" d="M 638 629 L 832 979" id="v-2313" stroke-width="2" stroke-dasharray="30 30" fill="none" style="opacity: 1;"></path><path  fill="black" stroke="black" d="M 0 0 0 0" transform="matrix(0.4865497752080244,0.8736528579733605,-0.8736528579733605,0.4865497752080244,637.5399780273438,629)"></path><path  fill="#707070" stroke="#707070" d="M 20 0 L 0 10 L 20 20 z" id="v-2315" transform="matrix(-0.4865497752080247,-0.8736528579733602,0.8736528579733602,-0.4865497752080247,823.7234515942217,983.8655151013453)" style="opacity: 1;"></path><path  d="M 638 629 L 832 979" id="v-2314" fill="none" style="cursor: auto; pointer-events: visiblepainted;"></path><g ><g id="v-2304"  label-idx="0" cursor="move" transform="matrix(1,0,0,1,735,804)" style="cursor: default; opacity: 1;"><rect joint-selector="rect" id="v-2308" fill="#ffffff" rx="3" ry="3" stroke="#ffffff" stroke-width="20px" pointer-events="none" width="199.8472900390625" height="32.89385223388672" transform="matrix(1,0,0,1,-99.9,-16.5)"></rect><text joint-selector="text" id="v-2307" font-size="24px" xml:space="preserve" y="0.8em" fill="#707070" text-anchor="middle" pointer-events="none" font-family="Open Sans" font-weight="normal" transform="matrix(1,0,0,1,0,-11)"><tspan dy="0" >Could request API</tspan></text></g><g id="v-2305"  label-idx="1" cursor="move" transform="matrix(1,0,0,1,735,831)" style="cursor: default; opacity: 1;"><rect joint-selector="rect" id="v-2310" fill="#ffffff" rx="3" ry="3" pointer-events="none" width="435.8863830566406" height="24.67038917541504" transform="matrix(1,0,0,1,-217.9,-12.3)"></rect><text joint-selector="text" id="v-2309" font-size="17px" xml:space="preserve" y="0.8em" fill="#707070" text-anchor="middle" pointer-events="none" font-family="Open Sans" font-weight="normal" transform="matrix(1,0,0,1,0,-6.7)"><tspan dy="0" >[GraphQL (HTTPS Post, Request/Response Body: JSON)]</tspan></text></g><g id="v-2306"  label-idx="2" cursor="move" transform="matrix(1,0,0,1,725,840.25)" style="cursor: default; opacity: 1;"><rect joint-selector="rect" id="v-2312" fill="#ffffff" rx="3" ry="3"  width="0" height="0" transform="matrix(1,0,0,1,0,0)" display="none"></rect><text joint-selector="text" id="v-2311" fill="#000000" font-size="14" text-anchor="middle" pointer-events="none"></text></g></g><g  display="none" style="display: none;"></g><g  id="v-2317" display="none"><g  id="v-2302"><path  end="source" d="M 26 0 L 0 13 L 26 26 z"></path></g><g  id="v-2303"><path  end="target" d="M 26 0 L 0 13 L 26 26 z"></path></g></g><g  id="v-2316" display="none"><g  id="v-2301" transform="translate(657.3917602524672, 663.9851344761005) "><g  event="remove"><circle r="11"></circle><path transform="scale(.8) translate(-16, -16)" d="M24.778,21.419 19.276,15.917 24.777,10.415 21.949,7.585 16.447,13.087 10.945,7.585 8.117,10.415 13.618,15.917 8.116,21.419 10.946,24.248 16.447,18.746 21.948,24.248z"></path><title>Remove link.</title></g><g  event="link:options"><circle r="11" transform="translate(25)"></circle><path fill="white" transform="scale(.55) translate(29, -16)" d="M31.229,17.736c0.064-0.571,0.104-1.148,0.104-1.736s-0.04-1.166-0.104-1.737l-4.377-1.557c-0.218-0.716-0.504-1.401-0.851-2.05l1.993-4.192c-0.725-0.91-1.549-1.734-2.458-2.459l-4.193,1.994c-0.647-0.347-1.334-0.632-2.049-0.849l-1.558-4.378C17.165,0.708,16.588,0.667,16,0.667s-1.166,0.041-1.737,0.105L12.707,5.15c-0.716,0.217-1.401,0.502-2.05,0.849L6.464,4.005C5.554,4.73,4.73,5.554,4.005,6.464l1.994,4.192c-0.347,0.648-0.632,1.334-0.849,2.05l-4.378,1.557C0.708,14.834,0.667,15.412,0.667,16s0.041,1.165,0.105,1.736l4.378,1.558c0.217,0.715,0.502,1.401,0.849,2.049l-1.994,4.193c0.725,0.909,1.549,1.733,2.459,2.458l4.192-1.993c0.648,0.347,1.334,0.633,2.05,0.851l1.557,4.377c0.571,0.064,1.148,0.104,1.737,0.104c0.588,0,1.165-0.04,1.736-0.104l1.558-4.377c0.715-0.218,1.399-0.504,2.049-0.851l4.193,1.993c0.909-0.725,1.733-1.549,2.458-2.458l-1.993-4.193c0.347-0.647,0.633-1.334,0.851-2.049L31.229,17.736zM16,20.871c-2.69,0-4.872-2.182-4.872-4.871c0-2.69,2.182-4.872,4.872-4.872c2.689,0,4.871,2.182,4.871,4.872C20.871,18.689,18.689,20.871,16,20.871z"></path><title>Link options.</title></g></g></g></g></g><g ></g><g ></g><g ></g></g></svg>