<svg xmlns="http://www.w3.org/2000/svg" xmlns:xlink="http://www.w3.org/1999/xlink" version="1.1" viewBox="0 0 1108 2158" style="background: #ffffff"><defs joint-selector="defs"></defs><g joint-selector="layers"  transform="matrix(1,0,0,1,0,0)"><g ></g><g ><g   id="j_215"  transform="translate(20,2113)"><g id="v-2406"><text  id="v-2407" font-size="22px" xml:space="preserve" y="0.8em" font-weight="normal" text-anchor="start" fill="#aaaaaa" pointer-events="none" font-family="Open Sans"><tspan dy="0" >Tuesday, January 23, 2024 at 3:47 PM Central European Standard Time</tspan></text></g></g><g   id="j_214"  transform="translate(20,2082)"><g id="v-2404"><text  id="v-2405" font-size="22px" xml:space="preserve" y="0.8em" font-weight="normal" text-anchor="start" fill="#aaaaaa" pointer-events="none" font-family="Open Sans"><tspan dy="0" >The container diagram for the Metabase.</tspan></text></g></g><g   id="j_213"  transform="translate(20,2038)"><g id="v-2402"><text  id="v-2403" font-size="36px" xml:space="preserve" y="0.8em" font-weight="normal" text-anchor="start" fill="#000000" pointer-events="none" font-family="Open Sans"><tspan dy="0" >[Container] Metabase</tspan></text></g></g><g   id="j_208"  transform="translate(309,309)" style=""><g id="v-2342"><rect  id="v-2343" width="490" height="1611" rx="0" ry="0" fill="#ffffff" stroke="#c7c7c7" stroke-width="1" stroke-dasharray="20,20" pointer-events="none"></rect><text  id="v-2344" font-size="24px" xml:space="preserve" y="1572" font-weight="normal" fill="#c7c7c7" text-anchor="start" pointer-events="visible" font-family="Open Sans" transform="matrix(1,0,0,1,15,0)"><tspan dy="0" >Metabase</tspan></text><text  id="v-2345" font-size="17px" xml:space="preserve" y="1596" font-weight="normal" fill="#c7c7c7" text-anchor="start" pointer-events="visible" font-family="Open Sans" transform="matrix(1,0,0,1,15,0)"><tspan dy="0" >[Software System]</tspan></text><image  id="v-2346" pointer-events="visible"></image></g></g><g   id="j_207"  transform="translate(329,329)" style=""><g  id="v-2330" style="opacity: 1;"><rect  id="v-2331" rx="10" ry="10" stroke="#c7c7c7" stroke-width="2" pointer-events="visiblePainted" fill="#c7c7c7" width="450" height="300" style="fill: rgb(199, 199, 199); stroke: rgb(199, 199, 199);"></rect><rect  id="v-2332" rx="10" ry="10" stroke="#c7c7c7" stroke-width="0" pointer-events="visiblePainted" fill="#dddddd" width="430" height="250" x="10" y="40" style="fill: rgb(221, 221, 221);"></rect><ellipse  id="v-2339" fill="#dddddd" cx="20" cy="20" rx="10" ry="10" style="fill: rgb(221, 221, 221);"></ellipse><ellipse  id="v-2340" fill="#dddddd" cx="50" cy="20" rx="10" ry="10" style="fill: rgb(221, 221, 221);"></ellipse><ellipse  id="v-2341" fill="#dddddd" cx="80" cy="20" rx="10" ry="10" style="fill: rgb(221, 221, 221);"></ellipse><rect  id="v-2333" rx="10" ry="10" stroke="#444444" stroke-width="0" pointer-events="visiblePainted" fill="#dddddd" width="340" height="20" x="100" y="10" style="fill: rgb(221, 221, 221);"></rect><text  id="v-2334" font-size="34" xml:space="preserve" y="0.8em" font-weight="bold" text-anchor="middle" pointer-events="visible" font-family="Open Sans" fill="#000000" transform="matrix(1,0,0,1,225,96.3)" style="fill: rgb(0, 0, 0);"><tspan dy="0" >Single-Page Application</tspan><tspan dy="1.2em" x="0" >(SPA)</tspan></text><text  id="v-2335" font-size="17" xml:space="preserve" y="0.8em" text-anchor="middle" font-family="Open Sans" fill="#000000" transform="matrix(1,0,0,1,225,181.3)" style="fill: rgb(0, 0, 0);"><tspan dy="0" >[Container: Language: TypeScript, Framework:</tspan><tspan dy="1.2em" x="0" >Next.js]</tspan></text><text  id="v-2336" font-size="24" xml:space="preserve" display="none" y="0.8em" text-anchor="middle" font-family="Open Sans" fill="#000000" transform="matrix(1,0,0,1,225,233.8)" style="fill: rgb(0, 0, 0);"><tspan dy="0" style="fill-opacity: 0; stroke-opacity: 0;" >-</tspan></text><g  id="v-2337" font-weight="normal" text-anchor="middle" color="#000000" transform="matrix(1,0,0,1,222.5,243.8)" display="none" style="fill: rgb(0, 0, 0);"><g ></g><g ></g><g ></g><g ></g></g><image  id="v-2338"></image></g></g><g   id="j_209"  transform="translate(329,1529)" style=""><g  id="v-2350" style="opacity: 1;"><path  d="M 0,30 a 225,30 0,0,0 450 0 a 225,30 0,0,0 -450 0 l 0,240 a 225,30 0,0,0 450 0 l 0,-240" id="v-2351" stroke="#c7c7c7" stroke-width="2" pointer-events="visiblePainted" fill="#dddddd" style="fill: rgb(221, 221, 221); stroke: rgb(199, 199, 199);"></path><rect  id="v-2352" stroke-width="0" pointer-events="visiblePainted" fill="none" stroke="none" width="450" height="270" x="0" y="30"></rect><text  id="v-2353" font-size="34" xml:space="preserve" y="0.8em" font-weight="bold" text-anchor="middle" pointer-events="visible" font-family="Open Sans" fill="#000000" transform="matrix(1,0,0,1,225,98.1)" style="fill: rgb(0, 0, 0);"><tspan dy="0" >Database</tspan></text><text  id="v-2354" font-size="17" xml:space="preserve" y="0.8em" text-anchor="middle" font-family="Open Sans" fill="#000000" transform="matrix(1,0,0,1,225,140.6)" style="fill: rgb(0, 0, 0);"><tspan dy="0" >[Container: PostgreSQL]</tspan></text><text  id="v-2355" font-size="24" xml:space="preserve" y="0.8em" text-anchor="middle" font-family="Open Sans" fill="#000000" transform="matrix(1,0,0,1,225,171.9)" style="fill: rgb(0, 0, 0);"><tspan dy="0" >PostgreSQL is a relational database</tspan><tspan dy="1.2em" x="0" >management system emphasizing</tspan><tspan dy="1.2em" x="0" >extensibility and SQL compliance.</tspan></text><g  id="v-2356" font-weight="normal" text-anchor="middle" color="#000000" transform="matrix(1,0,0,1,222.5,271.9)" display="none" style="fill: rgb(0, 0, 0);"><g ></g><g ></g><g ></g><g ></g></g><image  id="v-2357"></image></g></g><g   id="j_210"  transform="translate(329,929)" style=""><g  id="v-2361" style="opacity: 1;"><rect  id="v-2362" rx="1" ry="1" stroke="#c7c7c7" stroke-width="2" pointer-events="visiblePainted" fill="#dddddd" width="450" height="300" style="fill: rgb(221, 221, 221); stroke: rgb(199, 199, 199);"></rect><text  id="v-2363" font-size="34" xml:space="preserve" y="0.8em" font-weight="bold" text-anchor="middle" pointer-events="visible" font-family="Open Sans" fill="#000000" transform="matrix(1,0,0,1,225,102.5)" style="fill: rgb(0, 0, 0);"><tspan dy="0" >Middle Tier</tspan></text><text  id="v-2364" font-size="17" xml:space="preserve" y="0.8em" text-anchor="middle" font-family="Open Sans" fill="#000000" transform="matrix(1,0,0,1,225,145)" style="fill: rgb(0, 0, 0);"><tspan dy="0" >[Container: Language: C#, Framework: ASP.NET</tspan><tspan dy="1.2em" x="0" >Core]</tspan></text><text  id="v-2365" font-size="24" xml:space="preserve" display="none" y="0.8em" text-anchor="middle" font-family="Open Sans" fill="#000000" transform="matrix(1,0,0,1,225,197.5)" style="fill: rgb(0, 0, 0);"><tspan dy="0" style="fill-opacity: 0; stroke-opacity: 0;" >-</tspan></text><g  id="v-2366" color="#000000" transform="matrix(1,0,0,1,210,207.5)" display="none" style="fill: rgb(0, 0, 0);"><g  transform="translate(5 0)"><svg xmlns="http://www.w3.org/2000/svg" width="20" height="20" fill="currentColor" viewBox="0 0 16 16"><path fill-rule="evenodd" d="M6.5 12a5.5 5.5 0 1 0 0-11 5.5 5.5 0 0 0 0 11zM13 6.5a6.5 6.5 0 1 1-13 0 6.5 6.5 0 0 1 13 0z"></path><path d="M10.344 11.742c.03.04.062.078.098.115l3.85 3.85a1 1 0 0 0 1.415-1.414l-3.85-3.85a1.007 1.007 0 0 0-.115-.1 6.538 6.538 0 0 1-1.398 1.4z"></path><path fill-rule="evenodd" d="M6.5 3a.5.5 0 0 1 .5.5V6h2.5a.5.5 0 0 1 0 1H7v2.5a.5.5 0 0 1-1 0V7H3.5a.5.5 0 0 1 0-1H6V3.5a.5.5 0 0 1 .5-.5z"></path></svg></g><g ></g><g ></g><g ></g></g><image  id="v-2367"></image></g></g><g   id="j_211" ><path  stroke="#707070" d="M 554 629 L 554 929" id="v-2380" stroke-width="2" stroke-dasharray="30 30" fill="none" style="opacity: 1;"></path><path  fill="black" stroke="black" d="M 0 0 0 0" transform="matrix(6.123233995736766e-17,1,-1,6.123233995736766e-17,554,629)"></path><path  fill="#707070" stroke="#707070" d="M 20 0 L 0 10 L 20 20 z" id="v-2382" transform="matrix(-1.8369701987210297e-16,-1,1,-1.8369701987210297e-16,544,929)" style="opacity: 1;"></path><path  d="M 554 629 L 554 929" id="v-2381" fill="none" style="cursor: auto; pointer-events: visiblepainted;"></path><g ><g id="v-2371"  label-idx="0" cursor="move" transform="matrix(1,0,0,1,554,779)" style="cursor: default; opacity: 1;"><rect joint-selector="rect" id="v-2375" fill="#ffffff" rx="3" ry="3" stroke="#ffffff" stroke-width="20px" pointer-events="none" width="102.39114379882812" height="34.82805824279785" transform="matrix(1,0,0,1,-51.2,-17.4)"></rect><text joint-selector="text" id="v-2374" font-size="24px" xml:space="preserve" y="0.8em" fill="#707070" text-anchor="middle" pointer-events="none" font-family="Open Sans" font-weight="normal" transform="matrix(1,0,0,1,0,-9.8)"><tspan dy="0" >Requests</tspan></text></g><g id="v-2372"  label-idx="1" cursor="move" transform="matrix(1,0,0,1,554,806)" style="cursor: default; opacity: 1;"><rect joint-selector="rect" id="v-2377" fill="#ffffff" rx="3" ry="3" pointer-events="none" width="435.68560791015625" height="24.111732482910156" transform="matrix(1,0,0,1,-217.8,-12.1)"></rect><text joint-selector="text" id="v-2376" font-size="17px" xml:space="preserve" y="0.8em" fill="#707070" text-anchor="middle" pointer-events="none" font-family="Open Sans" font-weight="normal" transform="matrix(1,0,0,1,0,-6.9)"><tspan dy="0" >[GraphQL (HTTPS Post, Request/Response Body: JSON)]</tspan></text></g><g id="v-2373"  label-idx="2" cursor="move" transform="matrix(1,0,0,1,544,815.25)" style="cursor: default; opacity: 1;"><rect joint-selector="rect" id="v-2379" fill="#ffffff" rx="3" ry="3"  width="0" height="0" transform="matrix(1,0,0,1,0,0)" display="none"></rect><text joint-selector="text" id="v-2378" fill="#000000" font-size="14" text-anchor="middle" pointer-events="none"></text></g></g><g  display="none" style="display: none;"></g><g  id="v-2384" display="none"><g  id="v-2369"><path  end="source" d="M 26 0 L 0 13 L 26 26 z"></path></g><g  id="v-2370"><path  end="target" d="M 26 0 L 0 13 L 26 26 z"></path></g></g><g  id="v-2383" display="none"><g  id="v-2368" transform="translate(554, 669) "><g  event="remove"><circle r="11"></circle><path transform="scale(.8) translate(-16, -16)" d="M24.778,21.419 19.276,15.917 24.777,10.415 21.949,7.585 16.447,13.087 10.945,7.585 8.117,10.415 13.618,15.917 8.116,21.419 10.946,24.248 16.447,18.746 21.948,24.248z"></path><title>Remove link.</title></g><g  event="link:options"><circle r="11" transform="translate(25)"></circle><path fill="white" transform="scale(.55) translate(29, -16)" d="M31.229,17.736c0.064-0.571,0.104-1.148,0.104-1.736s-0.04-1.166-0.104-1.737l-4.377-1.557c-0.218-0.716-0.504-1.401-0.851-2.05l1.993-4.192c-0.725-0.91-1.549-1.734-2.458-2.459l-4.193,1.994c-0.647-0.347-1.334-0.632-2.049-0.849l-1.558-4.378C17.165,0.708,16.588,0.667,16,0.667s-1.166,0.041-1.737,0.105L12.707,5.15c-0.716,0.217-1.401,0.502-2.05,0.849L6.464,4.005C5.554,4.73,4.73,5.554,4.005,6.464l1.994,4.192c-0.347,0.648-0.632,1.334-0.849,2.05l-4.378,1.557C0.708,14.834,0.667,15.412,0.667,16s0.041,1.165,0.105,1.736l4.378,1.558c0.217,0.715,0.502,1.401,0.849,2.049l-1.994,4.193c0.725,0.909,1.549,1.733,2.459,2.458l4.192-1.993c0.648,0.347,1.334,0.633,2.05,0.851l1.557,4.377c0.571,0.064,1.148,0.104,1.737,0.104c0.588,0,1.165-0.04,1.736-0.104l1.558-4.377c0.715-0.218,1.399-0.504,2.049-0.851l4.193,1.993c0.909-0.725,1.733-1.549,2.458-2.458l-1.993-4.193c0.347-0.647,0.633-1.334,0.851-2.049L31.229,17.736zM16,20.871c-2.69,0-4.872-2.182-4.872-4.871c0-2.69,2.182-4.872,4.872-4.872c2.689,0,4.871,2.182,4.871,4.872C20.871,18.689,18.689,20.871,16,20.871z"></path><title>Link options.</title></g></g></g></g><g   id="j_212" ><path  stroke="#707070" d="M 554 1229 L 554 1529" id="v-2397" stroke-width="2" stroke-dasharray="30 30" fill="none" style="opacity: 1;"></path><path  fill="black" stroke="black" d="M 0 0 0 0" transform="matrix(6.123233995736766e-17,1,-1,6.123233995736766e-17,554,1229)"></path><path  fill="#707070" stroke="#707070" d="M 20 0 L 0 10 L 20 20 z" id="v-2399" transform="matrix(-1.8369701987210297e-16,-1,1,-1.8369701987210297e-16,544,1529)" style="opacity: 1;"></path><path  d="M 554 1229 L 554 1529" id="v-2398" fill="none" style="cursor: auto; pointer-events: visiblepainted;"></path><g ><g id="v-2388"  label-idx="0" cursor="move" transform="matrix(1,0,0,1,554,1379)" style="cursor: default; opacity: 1;"><rect joint-selector="rect" id="v-2392" fill="#ffffff" rx="3" ry="3" stroke="#ffffff" stroke-width="20px" pointer-events="none" width="87.44689178466797" height="34.82805824279785" transform="matrix(1,0,0,1,-43.7,-17.4)"></rect><text joint-selector="text" id="v-2391" font-size="24px" xml:space="preserve" y="0.8em" fill="#707070" text-anchor="middle" pointer-events="none" font-family="Open Sans" font-weight="normal" transform="matrix(1,0,0,1,0,-9.8)"><tspan dy="0" >Queries</tspan></text></g><g id="v-2389"  label-idx="1" cursor="move" transform="matrix(1,0,0,1,554,1406)" style="cursor: default; opacity: 1;"><rect joint-selector="rect" id="v-2394" fill="#ffffff" rx="3" ry="3" pointer-events="none" width="428.5274353027344" height="24.111732482910156" transform="matrix(1,0,0,1,-214.3,-12.1)"></rect><text joint-selector="text" id="v-2393" font-size="17px" xml:space="preserve" y="0.8em" fill="#707070" text-anchor="middle" pointer-events="none" font-family="Open Sans" font-weight="normal" transform="matrix(1,0,0,1,0,-6.9)"><tspan dy="0" >[Structured Query Language (Query: SQL, Result: CSV)]</tspan></text></g><g id="v-2390"  label-idx="2" cursor="move" transform="matrix(1,0,0,1,544,1415.25)" style="cursor: default; opacity: 1;"><rect joint-selector="rect" id="v-2396" fill="#ffffff" rx="3" ry="3"  width="0" height="0" transform="matrix(1,0,0,1,0,0)" display="none"></rect><text joint-selector="text" id="v-2395" fill="#000000" font-size="14" text-anchor="middle" pointer-events="none"></text></g></g><g  display="none" style="display: none;"></g><g  id="v-2401" display="none"><g  id="v-2386"><path  end="source" d="M 26 0 L 0 13 L 26 26 z"></path></g><g  id="v-2387"><path  end="target" d="M 26 0 L 0 13 L 26 26 z"></path></g></g><g  id="v-2400" display="none"><g  id="v-2385" transform="translate(554, 1269) "><g  event="remove"><circle r="11"></circle><path transform="scale(.8) translate(-16, -16)" d="M24.778,21.419 19.276,15.917 24.777,10.415 21.949,7.585 16.447,13.087 10.945,7.585 8.117,10.415 13.618,15.917 8.116,21.419 10.946,24.248 16.447,18.746 21.948,24.248z"></path><title>Remove link.</title></g><g  event="link:options"><circle r="11" transform="translate(25)"></circle><path fill="white" transform="scale(.55) translate(29, -16)" d="M31.229,17.736c0.064-0.571,0.104-1.148,0.104-1.736s-0.04-1.166-0.104-1.737l-4.377-1.557c-0.218-0.716-0.504-1.401-0.851-2.05l1.993-4.192c-0.725-0.91-1.549-1.734-2.458-2.459l-4.193,1.994c-0.647-0.347-1.334-0.632-2.049-0.849l-1.558-4.378C17.165,0.708,16.588,0.667,16,0.667s-1.166,0.041-1.737,0.105L12.707,5.15c-0.716,0.217-1.401,0.502-2.05,0.849L6.464,4.005C5.554,4.73,4.73,5.554,4.005,6.464l1.994,4.192c-0.347,0.648-0.632,1.334-0.849,2.05l-4.378,1.557C0.708,14.834,0.667,15.412,0.667,16s0.041,1.165,0.105,1.736l4.378,1.558c0.217,0.715,0.502,1.401,0.849,2.049l-1.994,4.193c0.725,0.909,1.549,1.733,2.459,2.458l4.192-1.993c0.648,0.347,1.334,0.633,2.05,0.851l1.557,4.377c0.571,0.064,1.148,0.104,1.737,0.104c0.588,0,1.165-0.04,1.736-0.104l1.558-4.377c0.715-0.218,1.399-0.504,2.049-0.851l4.193,1.993c0.909-0.725,1.733-1.549,2.458-2.458l-1.993-4.193c0.347-0.647,0.633-1.334,0.851-2.049L31.229,17.736zM16,20.871c-2.69,0-4.872-2.182-4.872-4.871c0-2.69,2.182-4.872,4.872-4.872c2.689,0,4.871,2.182,4.871,4.872C20.871,18.689,18.689,20.871,16,20.871z"></path><title>Link options.</title></g></g></g></g></g><g ></g><g ></g><g ></g></g></svg>