<svg xmlns="http://www.w3.org/2000/svg" xmlns:xlink="http://www.w3.org/1999/xlink" version="1.1" viewBox="0 0 2500 500" style="background: #ffffff"><g transform="translate(25,100)"><rect width="450" height="300" rx="3" ry="3" x="0" y="0" fill="#85bbf0" stroke-width="2" stroke="#78a8d8"/><text x="225" y="131.25" text-anchor="middle" fill="#000000" font-size="30px" font-family="Open Sans"><tspan x="225" dy="40px">Component</tspan></text></g><g transform="translate(525,100)"><path id="keyAPIPipePath" d="M 22.5,0 a 22.5,150 0,0,1 0 300 a 22.5,150 0,0,1 0 -300 l 405,0 a 22.5,150 0,0,1 0 300 l -405,0" fill="#85bbf0" stroke-width="2" stroke="#78a8d8"></path><text x="225" y="131.25" text-anchor="middle" fill="#000000" font-size="30px" font-family="Open Sans"><tspan x="225" dy="40px">Component, API</tspan></text></g><g transform="translate(1025,100)"><path id="keyDatabaseCylinderPath" d="M 0,22.5 a 225,22.5 0,0,0 450 0 a 225,22.5 0,0,0 -450 0 l 0,255 a 225,22.5 0,0,0 450 0 l 0,-255" fill="#dddddd" stroke-width="2" stroke="#c7c7c7"></path><text x="225" y="142.5" text-anchor="middle" fill="#000000" font-size="30px" font-family="Open Sans"><tspan x="225" dy="40px">Database</tspan></text></g><g transform="translate(1525,100)"><rect width="450" height="300" rx="10" ry="10" x="0" y="0" fill="#c7c7c7" stroke-width="5" stroke="#c7c7c7"/><rect width="430" height="250" rx="10" ry="10" x="10" y="40" fill="#dddddd" stroke-width="0"/><rect width="340" height="20" rx="10" ry="10" x="100" y="10" fill="#dddddd" stroke-width="0"/><ellipse cx="20" cy="20" rx="10" ry="10" fill="#dddddd" stroke-width="0"/><ellipse cx="50" cy="20" rx="10" ry="10" fill="#dddddd" stroke-width="0"/><ellipse cx="80" cy="20" rx="10" ry="10" fill="#dddddd" stroke-width="0"/><text x="225" y="141.25" text-anchor="middle" fill="#000000" font-size="30px" font-family="Open Sans"><tspan x="225" dy="40px">Web Browser</tspan></text></g><g transform="translate(2025,170)"><path d="M390,0 L390,60 L450,30 L 390,0" style="fill:#707070" stroke-dasharray="" /><path d="M0,30 L390,30" style="stroke:#707070; stroke-width: 6; fill: none; stroke-dasharray: 30 30;" /><text x="225" y="76.25" text-anchor="middle" fill="#707070" font-size="30px" font-family="Open Sans"><tspan x="225" dy="40px">Relationship</tspan></text></g></svg>