<svg xmlns="http://www.w3.org/2000/svg" xmlns:xlink="http://www.w3.org/1999/xlink" version="1.1" viewBox="0 0 2390 3100" style="background: #ffffff"><defs joint-selector="defs"></defs><g joint-selector="layers"  transform="matrix(1,0,0,1,0,0)"><g ></g><g ><g   id="j_234"  transform="translate(20,3055)"><g id="v-2655"><text  id="v-2656" font-size="22px" xml:space="preserve" y="0.8em" font-weight="normal" text-anchor="start" fill="#aaaaaa" pointer-events="none" font-family="Open Sans"><tspan dy="0" >Tuesday, January 23, 2024 at 3:47 PM Central European Standard Time</tspan></text></g></g><g   id="j_233"  transform="translate(20,3024)"><g id="v-2653"><text  id="v-2654" font-size="22px" xml:space="preserve" y="0.8em" font-weight="normal" text-anchor="start" fill="#aaaaaa" pointer-events="none" font-family="Open Sans"><tspan dy="0" >The component diagram for the API Application.</tspan></text></g></g><g   id="j_232"  transform="translate(20,2980)"><g id="v-2651"><text  id="v-2652" font-size="36px" xml:space="preserve" y="0.8em" font-weight="normal" text-anchor="start" fill="#000000" pointer-events="none" font-family="Open Sans"><tspan dy="0" >[Component] Metabase - Middle Tier</tspan></text></g></g><g   id="j_221"  transform="translate(1324,200)" style=""><g  id="v-2472" style="opacity: 1;"><rect  id="v-2473" rx="10" ry="10" stroke="#c7c7c7" stroke-width="2" pointer-events="visiblePainted" fill="#c7c7c7" width="450" height="300" style="fill: rgb(199, 199, 199); stroke: rgb(199, 199, 199);"></rect><rect  id="v-2474" rx="10" ry="10" stroke="#c7c7c7" stroke-width="0" pointer-events="visiblePainted" fill="#dddddd" width="430" height="250" x="10" y="40" style="fill: rgb(221, 221, 221);"></rect><ellipse  id="v-2481" fill="#dddddd" cx="20" cy="20" rx="10" ry="10" style="fill: rgb(221, 221, 221);"></ellipse><ellipse  id="v-2482" fill="#dddddd" cx="50" cy="20" rx="10" ry="10" style="fill: rgb(221, 221, 221);"></ellipse><ellipse  id="v-2483" fill="#dddddd" cx="80" cy="20" rx="10" ry="10" style="fill: rgb(221, 221, 221);"></ellipse><rect  id="v-2475" rx="10" ry="10" stroke="#444444" stroke-width="0" pointer-events="visiblePainted" fill="#dddddd" width="340" height="20" x="100" y="10" style="fill: rgb(221, 221, 221);"></rect><text  id="v-2476" font-size="34" xml:space="preserve" y="0.8em" font-weight="bold" text-anchor="middle" pointer-events="visible" font-family="Open Sans" fill="#000000" transform="matrix(1,0,0,1,225,96.3)" style="fill: rgb(0, 0, 0);"><tspan dy="0" >Single-Page Application</tspan><tspan dy="1.2em" x="0" >(SPA)</tspan></text><text  id="v-2477" font-size="17" xml:space="preserve" y="0.8em" text-anchor="middle" font-family="Open Sans" fill="#000000" transform="matrix(1,0,0,1,225,181.3)" style="fill: rgb(0, 0, 0);"><tspan dy="0" >[Container: Language: TypeScript, Framework:</tspan><tspan dy="1.2em" x="0" >Next.js]</tspan></text><text  id="v-2478" font-size="24" xml:space="preserve" display="none" y="0.8em" text-anchor="middle" font-family="Open Sans" fill="#000000" transform="matrix(1,0,0,1,225,233.8)" style="fill: rgb(0, 0, 0);"><tspan dy="0" style="fill-opacity: 0; stroke-opacity: 0;" >-</tspan></text><g  id="v-2479" font-weight="normal" text-anchor="middle" color="#000000" transform="matrix(1,0,0,1,222.5,243.8)" display="none" style="fill: rgb(0, 0, 0);"><g ></g><g ></g><g ></g><g ></g></g><image  id="v-2480"></image></g></g><g   id="j_222"  transform="translate(970,2600)" style=""><g  id="v-2487" style="opacity: 1;"><path  d="M 0,30 a 225,30 0,0,0 450 0 a 225,30 0,0,0 -450 0 l 0,240 a 225,30 0,0,0 450 0 l 0,-240" id="v-2488" stroke="#c7c7c7" stroke-width="2" pointer-events="visiblePainted" fill="#dddddd" style="fill: rgb(221, 221, 221); stroke: rgb(199, 199, 199);"></path><rect  id="v-2489" stroke-width="0" pointer-events="visiblePainted" fill="none" stroke="none" width="450" height="270" x="0" y="30"></rect><text  id="v-2490" font-size="34" xml:space="preserve" y="0.8em" font-weight="bold" text-anchor="middle" pointer-events="visible" font-family="Open Sans" fill="#000000" transform="matrix(1,0,0,1,225,98.1)" style="fill: rgb(0, 0, 0);"><tspan dy="0" >Database</tspan></text><text  id="v-2491" font-size="17" xml:space="preserve" y="0.8em" text-anchor="middle" font-family="Open Sans" fill="#000000" transform="matrix(1,0,0,1,225,140.6)" style="fill: rgb(0, 0, 0);"><tspan dy="0" >[Container: PostgreSQL]</tspan></text><text  id="v-2492" font-size="24" xml:space="preserve" y="0.8em" text-anchor="middle" font-family="Open Sans" fill="#000000" transform="matrix(1,0,0,1,225,171.9)" style="fill: rgb(0, 0, 0);"><tspan dy="0" >PostgreSQL is a relational database</tspan><tspan dy="1.2em" x="0" >management system emphasizing</tspan><tspan dy="1.2em" x="0" >extensibility and SQL compliance.</tspan></text><g  id="v-2493" font-weight="normal" text-anchor="middle" color="#000000" transform="matrix(1,0,0,1,222.5,271.9)" display="none" style="fill: rgb(0, 0, 0);"><g ></g><g ></g><g ></g><g ></g></g><image  id="v-2494"></image></g></g><g   id="j_217"  transform="translate(200,780)" style=""><g id="v-2418"><rect  id="v-2419" width="1990" height="1611" rx="0" ry="0" fill="#ffffff" stroke="#c7c7c7" stroke-width="1" stroke-dasharray="20,20" pointer-events="none"></rect><text  id="v-2420" font-size="24px" xml:space="preserve" y="1572" font-weight="normal" fill="#c7c7c7" text-anchor="start" pointer-events="visible" font-family="Open Sans" transform="matrix(1,0,0,1,15,0)"><tspan dy="0" >Middle Tier</tspan></text><text  id="v-2421" font-size="17px" xml:space="preserve" y="1596" font-weight="normal" fill="#c7c7c7" text-anchor="start" pointer-events="visible" font-family="Open Sans" transform="matrix(1,0,0,1,15,0)"><tspan dy="0" >[Container]</tspan></text><image  id="v-2422" pointer-events="visible"></image></g></g><g   id="j_216"  transform="translate(220,1400)" style=""><g  id="v-2411" style="opacity: 1;"><rect  id="v-2412" rx="1" ry="1" stroke="#78a8d8" stroke-width="2" pointer-events="visiblePainted" fill="#85bbf0" width="450" height="300" style="fill: rgb(133, 187, 240); stroke: rgb(120, 168, 216);"></rect><text  id="v-2413" font-size="34" xml:space="preserve" y="0.8em" font-weight="bold" text-anchor="middle" pointer-events="visible" font-family="Open Sans" fill="#000000" transform="matrix(1,0,0,1,225,23.1)" style="fill: rgb(0, 0, 0);"><tspan dy="0" >Authorization</tspan></text><text  id="v-2414" font-size="17" xml:space="preserve" y="0.8em" text-anchor="middle" font-family="Open Sans" fill="#000000" transform="matrix(1,0,0,1,225,65.6)" style="fill: rgb(0, 0, 0);"><tspan dy="0" >[Component: Functions]</tspan></text><text  id="v-2415" font-size="24" xml:space="preserve" y="0.8em" text-anchor="middle" font-family="Open Sans" fill="#000000" transform="matrix(1,0,0,1,225,96.9)" style="fill: rgb(0, 0, 0);"><tspan dy="0" >Authorization or authorisation is</tspan><tspan dy="1.2em" x="0" >the function of specifying access</tspan><tspan dy="1.2em" x="0" >rights/privileges to resources, which</tspan><tspan dy="1.2em" x="0" >is related to general information</tspan><tspan dy="1.2em" x="0" >security and computer security, and</tspan><tspan dy="1.2em" x="0" >to access control in particular.</tspan></text><g  id="v-2416" color="#000000" transform="matrix(1,0,0,1,222.5,286.9)" display="none" style="fill: rgb(0, 0, 0);"><g ></g><g ></g><g ></g><g ></g></g><image  id="v-2417"></image></g></g><g   id="j_218"  transform="translate(970,1400)" style=""><g  id="v-2429" style="opacity: 1;"><rect  id="v-2430" rx="1" ry="1" stroke="#78a8d8" stroke-width="2" pointer-events="visiblePainted" fill="#85bbf0" width="450" height="300" style="fill: rgb(133, 187, 240); stroke: rgb(120, 168, 216);"></rect><text  id="v-2431" font-size="34" xml:space="preserve" y="0.8em" font-weight="bold" text-anchor="middle" pointer-events="visible" font-family="Open Sans" fill="#000000" transform="matrix(1,0,0,1,225,53.1)" style="fill: rgb(0, 0, 0);"><tspan dy="0" >Domain Model</tspan></text><text  id="v-2432" font-size="17" xml:space="preserve" y="0.8em" text-anchor="middle" font-family="Open Sans" fill="#000000" transform="matrix(1,0,0,1,225,95.6)" style="fill: rgb(0, 0, 0);"><tspan dy="0" >[Component: Plain-Old Instances]</tspan></text><text  id="v-2433" font-size="24" xml:space="preserve" y="0.8em" text-anchor="middle" font-family="Open Sans" fill="#000000" transform="matrix(1,0,0,1,225,126.9)" style="fill: rgb(0, 0, 0);"><tspan dy="0" >A domain model is a representation</tspan><tspan dy="1.2em" x="0" >of meaningful real-world concepts</tspan><tspan dy="1.2em" x="0" >pertinent to the domain that need</tspan><tspan dy="1.2em" x="0" >to be modeled in software.</tspan></text><g  id="v-2434" color="#000000" transform="matrix(1,0,0,1,222.5,256.9)" display="none" style="fill: rgb(0, 0, 0);"><g ></g><g ></g><g ></g><g ></g></g><image  id="v-2435"></image></g></g><g   id="j_219"  transform="translate(970,2000)" style=""><g  id="v-2445" style="opacity: 1;"><rect  id="v-2446" rx="1" ry="1" stroke="#78a8d8" stroke-width="2" pointer-events="visiblePainted" fill="#85bbf0" width="450" height="300" style="fill: rgb(133, 187, 240); stroke: rgb(120, 168, 216);"></rect><text  id="v-2447" font-size="34" xml:space="preserve" y="0.8em" font-weight="bold" text-anchor="middle" pointer-events="visible" font-family="Open Sans" fill="#000000" transform="matrix(1,0,0,1,225,46.9)" style="fill: rgb(0, 0, 0);"><tspan dy="0" >Object-Relational Mapper</tspan><tspan dy="1.2em" x="0" >(ORM)</tspan></text><text  id="v-2448" font-size="17" xml:space="preserve" y="0.8em" text-anchor="middle" font-family="Open Sans" fill="#000000" transform="matrix(1,0,0,1,225,131.9)" style="fill: rgb(0, 0, 0);"><tspan dy="0" >[Component: Entity Framework Core]</tspan></text><text  id="v-2449" font-size="24" xml:space="preserve" y="0.8em" text-anchor="middle" font-family="Open Sans" fill="#000000" transform="matrix(1,0,0,1,225,163.1)" style="fill: rgb(0, 0, 0);"><tspan dy="0" >An object-relational mapper</tspan><tspan dy="1.2em" x="0" >enables .NET developers to work</tspan><tspan dy="1.2em" x="0" >with a database using .NET objects.</tspan></text><g  id="v-2450" color="#000000" transform="matrix(1,0,0,1,222.5,263.1)" display="none" style="fill: rgb(0, 0, 0);"><g ></g><g ></g><g ></g><g ></g></g><image  id="v-2451"></image></g></g><g   id="j_220"  transform="translate(1720,1400)" style=""><g  id="v-2458" style="opacity: 1;"><path  d="M 30,0 a 30,150 0,0,1 0 300 a 30,150 0,0,1 0 -300 l 390,0 a 30,150 0,0,1 0 300 l -390,0" id="v-2459" stroke="#78a8d8" stroke-width="2" pointer-events="visiblePainted" fill="#85bbf0" style="fill: rgb(133, 187, 240); stroke: rgb(120, 168, 216);"></path><rect  id="v-2460" stroke-width="0" pointer-events="visiblePainted" fill="none" stroke="none" width="420" height="300" x="30" y="0"></rect><text  id="v-2461" font-size="34" xml:space="preserve" y="0.8em" font-weight="bold" text-anchor="middle" pointer-events="visible" font-family="Open Sans" fill="#000000" transform="matrix(1,0,0,1,240,23.1)" style="fill: rgb(0, 0, 0);"><tspan dy="0" >Single Sign-On (SSO)</tspan></text><text  id="v-2462" font-size="17" xml:space="preserve" y="0.8em" text-anchor="middle" font-family="Open Sans" fill="#000000" transform="matrix(1,0,0,1,240,65.6)" style="fill: rgb(0, 0, 0);"><tspan dy="0" >[Component: OpenIddict]</tspan></text><text  id="v-2463" font-size="24" xml:space="preserve" y="0.8em" text-anchor="middle" font-family="Open Sans" fill="#000000" transform="matrix(1,0,0,1,240,96.9)" style="fill: rgb(0, 0, 0);"><tspan dy="0" >OpenId Connect is an identity layer</tspan><tspan dy="1.2em" x="0" >built on top of the OAuth 2.0</tspan><tspan dy="1.2em" x="0" >framework. It allows third-party</tspan><tspan dy="1.2em" x="0" >applications to verify the identity of</tspan><tspan dy="1.2em" x="0" >the end-user and to obtain basic</tspan><tspan dy="1.2em" x="0" >user profile information.</tspan></text><g  id="v-2464" font-weight="normal" text-anchor="middle" color="#000000" transform="matrix(1,0,0,1,237.5,286.9)" display="none" style="fill: rgb(0, 0, 0);"><g ></g><g ></g><g ></g><g ></g></g><image  id="v-2465"></image></g></g><g   id="j_223"  transform="translate(970,800)" style=""><g  id="v-2498" style="opacity: 1;"><path  d="M 30,0 a 30,150 0,0,1 0 300 a 30,150 0,0,1 0 -300 l 390,0 a 30,150 0,0,1 0 300 l -390,0" id="v-2499" stroke="#78a8d8" stroke-width="2" pointer-events="visiblePainted" fill="#85bbf0" style="fill: rgb(133, 187, 240); stroke: rgb(120, 168, 216);"></path><rect  id="v-2500" stroke-width="0" pointer-events="visiblePainted" fill="none" stroke="none" width="420" height="300" x="30" y="0"></rect><text  id="v-2501" font-size="34" xml:space="preserve" y="0.8em" font-weight="bold" text-anchor="middle" pointer-events="visible" font-family="Open Sans" fill="#000000" transform="matrix(1,0,0,1,240,68.1)" style="fill: rgb(0, 0, 0);"><tspan dy="0" >GraphQL Server</tspan></text><text  id="v-2502" font-size="17" xml:space="preserve" y="0.8em" text-anchor="middle" font-family="Open Sans" fill="#000000" transform="matrix(1,0,0,1,240,110.6)" style="fill: rgb(0, 0, 0);"><tspan dy="0" >[Component: Hot Chocolate]</tspan></text><text  id="v-2503" font-size="24" xml:space="preserve" y="0.8em" text-anchor="middle" font-family="Open Sans" fill="#000000" transform="matrix(1,0,0,1,240,141.9)" style="fill: rgb(0, 0, 0);"><tspan dy="0" >Hot Chocolate takes the complexity</tspan><tspan dy="1.2em" x="0" >away from building a fully-fledged</tspan><tspan dy="1.2em" x="0" >GraphQL server.</tspan></text><g  id="v-2504" font-weight="normal" text-anchor="middle" color="#000000" transform="matrix(1,0,0,1,237.5,241.9)" display="none" style="fill: rgb(0, 0, 0);"><g ></g><g ></g><g ></g><g ></g></g><image  id="v-2505"></image></g></g><g   id="j_224" ><path  stroke="#707070" d="M 633 1700 L 1008 2000" id="v-2521" stroke-width="2" stroke-dasharray="30 30" fill="none" style="opacity: 1;"></path><path  fill="black" stroke="black" d="M 0 0 0 0" transform="matrix(0.7808688000832672,0.624695059254128,-0.624695059254128,0.7808688000832672,632.5,1700)"></path><path  fill="#707070" stroke="#707070" d="M 20 0 L 0 10 L 20 20 z" id="v-2523" transform="matrix(-0.7808688416748548,-0.6246950072646416,0.6246950072646416,-0.7808688416748548,1001.2530225237896,2007.8086902472076)" style="opacity: 1;"></path><path  d="M 633 1700 L 1008 2000" id="v-2522" fill="none" style="cursor: auto; pointer-events: visiblepainted;"></path><g ><g id="v-2512"  label-idx="0" cursor="move" transform="matrix(1,0,0,1,820.5,1850)" style="cursor: default; opacity: 1;"><rect joint-selector="rect" id="v-2516" fill="#ffffff" rx="3" ry="3" stroke="#ffffff" stroke-width="20px" pointer-events="none" width="107.23516845703125" height="92.23687744140625" transform="matrix(1,0,0,1,-52.6,-46.1)"></rect><text joint-selector="text" id="v-2515" font-size="24px" xml:space="preserve" y="0.8em" fill="#707070" text-anchor="middle" pointer-events="none" font-family="Open Sans" font-weight="normal" transform="matrix(1,0,0,1,0,-38.4)"><tspan dy="0" >Accesses</tspan><tspan dy="1.2em" x="0" >Database</tspan><tspan dy="1.2em" x="0" >Through</tspan></text></g><g id="v-2513"  label-idx="1" cursor="move" transform="matrix(1,0,0,1,820.5,1907)" style="cursor: default; opacity: 1;"><rect joint-selector="rect" id="v-2518" fill="#ffffff" rx="3" ry="3" pointer-events="none" width="425.982666015625" height="23.091249465942383" transform="matrix(1,0,0,1,-211.9,-11.5)"></rect><text joint-selector="text" id="v-2517" font-size="17px" xml:space="preserve" y="0.8em" fill="#707070" text-anchor="middle" pointer-events="none" font-family="Open Sans" font-weight="normal" transform="matrix(1,0,0,1,0,-5.9)"><tspan dy="0" >[Entity Framework Core (Functional C#, C# Instances)]</tspan></text></g><g id="v-2514"  label-idx="2" cursor="move" transform="matrix(1,0,0,1,810.5,1916.25)" style="cursor: default; opacity: 1;"><rect joint-selector="rect" id="v-2520" fill="#ffffff" rx="3" ry="3"  width="0" height="0" transform="matrix(1,0,0,1,0,0)" display="none"></rect><text joint-selector="text" id="v-2519" fill="#000000" font-size="14" text-anchor="middle" pointer-events="none"></text></g></g><g  display="none" style="display: none;"></g><g  id="v-2525" display="none"><g  id="v-2510"><path  end="source" d="M 26 0 L 0 13 L 26 26 z"></path></g><g  id="v-2511"><path  end="target" d="M 26 0 L 0 13 L 26 26 z"></path></g></g><g  id="v-2524" display="none"><g  id="v-2509" transform="translate(664.2347523777213, 1724.9878019021771) "><g  event="remove"><circle r="11"></circle><path transform="scale(.8) translate(-16, -16)" d="M24.778,21.419 19.276,15.917 24.777,10.415 21.949,7.585 16.447,13.087 10.945,7.585 8.117,10.415 13.618,15.917 8.116,21.419 10.946,24.248 16.447,18.746 21.948,24.248z"></path><title>Remove link.</title></g><g  event="link:options"><circle r="11" transform="translate(25)"></circle><path fill="white" transform="scale(.55) translate(29, -16)" d="M31.229,17.736c0.064-0.571,0.104-1.148,0.104-1.736s-0.04-1.166-0.104-1.737l-4.377-1.557c-0.218-0.716-0.504-1.401-0.851-2.05l1.993-4.192c-0.725-0.91-1.549-1.734-2.458-2.459l-4.193,1.994c-0.647-0.347-1.334-0.632-2.049-0.849l-1.558-4.378C17.165,0.708,16.588,0.667,16,0.667s-1.166,0.041-1.737,0.105L12.707,5.15c-0.716,0.217-1.401,0.502-2.05,0.849L6.464,4.005C5.554,4.73,4.73,5.554,4.005,6.464l1.994,4.192c-0.347,0.648-0.632,1.334-0.849,2.05l-4.378,1.557C0.708,14.834,0.667,15.412,0.667,16s0.041,1.165,0.105,1.736l4.378,1.558c0.217,0.715,0.502,1.401,0.849,2.049l-1.994,4.193c0.725,0.909,1.549,1.733,2.459,2.458l4.192-1.993c0.648,0.347,1.334,0.633,2.05,0.851l1.557,4.377c0.571,0.064,1.148,0.104,1.737,0.104c0.588,0,1.165-0.04,1.736-0.104l1.558-4.377c0.715-0.218,1.399-0.504,2.049-0.851l4.193,1.993c0.909-0.725,1.733-1.549,2.458-2.458l-1.993-4.193c0.347-0.647,0.633-1.334,0.851-2.049L31.229,17.736zM16,20.871c-2.69,0-4.872-2.182-4.872-4.871c0-2.69,2.182-4.872,4.872-4.872c2.689,0,4.871,2.182,4.871,4.872C20.871,18.689,18.689,20.871,16,20.871z"></path><title>Link options.</title></g></g></g></g><g   id="j_225" ><path  stroke="#707070" d="M 1195 1700 L 1195 2000" id="v-2541" stroke-width="2" stroke-dasharray="30 30" fill="none" style="opacity: 1;"></path><path  fill="black" stroke="black" d="M 0 0 0 0" transform="matrix(6.123233995736766e-17,1,-1,6.123233995736766e-17,1195,1700)"></path><path  fill="#707070" stroke="#707070" d="M 20 0 L 0 10 L 20 20 z" id="v-2543" transform="matrix(-1.8369701987210297e-16,-1,1,-1.8369701987210297e-16,1185,2000)" style="opacity: 1;"></path><path  d="M 1195 1700 L 1195 2000" id="v-2542" fill="none" style="cursor: auto; pointer-events: visiblepainted;"></path><g ><g id="v-2532"  label-idx="0" cursor="move" transform="matrix(1,0,0,1,1195,1850)" style="cursor: default; opacity: 1;"><rect joint-selector="rect" id="v-2536" fill="#ffffff" rx="3" ry="3" stroke="#ffffff" stroke-width="20px" pointer-events="none" width="175.44688415527344" height="34.63687515258789" transform="matrix(1,0,0,1,-86.1,-17.3)"></rect><text joint-selector="text" id="v-2535" font-size="24px" xml:space="preserve" y="0.8em" fill="#707070" text-anchor="middle" pointer-events="none" font-family="Open Sans" font-weight="normal" transform="matrix(1,0,0,1,0,-9.6)"><tspan dy="0" >Is Populated By</tspan></text></g><g id="v-2533"  label-idx="1" cursor="move" transform="matrix(1,0,0,1,1195,1877)" style="cursor: default; opacity: 1;"><rect joint-selector="rect" id="v-2538" fill="#ffffff" rx="3" ry="3" pointer-events="none" width="308.84417724609375" height="23.091249465942383" transform="matrix(1,0,0,1,-153.4,-11.5)"></rect><text joint-selector="text" id="v-2537" font-size="17px" xml:space="preserve" y="0.8em" fill="#707070" text-anchor="middle" pointer-events="none" font-family="Open Sans" font-weight="normal" transform="matrix(1,0,0,1,0,-5.9)"><tspan dy="0" >[Entity Framework Core (C# Instances)]</tspan></text></g><g id="v-2534"  label-idx="2" cursor="move" transform="matrix(1,0,0,1,1185,1886.25)" style="cursor: default; opacity: 1;"><rect joint-selector="rect" id="v-2540" fill="#ffffff" rx="3" ry="3"  width="0" height="0" transform="matrix(1,0,0,1,0,0)" display="none"></rect><text joint-selector="text" id="v-2539" fill="#000000" font-size="14" text-anchor="middle" pointer-events="none"></text></g></g><g  display="none" style="display: none;"></g><g  id="v-2545" display="none"><g  id="v-2530"><path  end="source" d="M 26 0 L 0 13 L 26 26 z"></path></g><g  id="v-2531"><path  end="target" d="M 26 0 L 0 13 L 26 26 z"></path></g></g><g  id="v-2544" display="none"><g  id="v-2529" transform="translate(1195, 1740.0000000000002) "><g  event="remove"><circle r="11"></circle><path transform="scale(.8) translate(-16, -16)" d="M24.778,21.419 19.276,15.917 24.777,10.415 21.949,7.585 16.447,13.087 10.945,7.585 8.117,10.415 13.618,15.917 8.116,21.419 10.946,24.248 16.447,18.746 21.948,24.248z"></path><title>Remove link.</title></g><g  event="link:options"><circle r="11" transform="translate(25)"></circle><path fill="white" transform="scale(.55) translate(29, -16)" d="M31.229,17.736c0.064-0.571,0.104-1.148,0.104-1.736s-0.04-1.166-0.104-1.737l-4.377-1.557c-0.218-0.716-0.504-1.401-0.851-2.05l1.993-4.192c-0.725-0.91-1.549-1.734-2.458-2.459l-4.193,1.994c-0.647-0.347-1.334-0.632-2.049-0.849l-1.558-4.378C17.165,0.708,16.588,0.667,16,0.667s-1.166,0.041-1.737,0.105L12.707,5.15c-0.716,0.217-1.401,0.502-2.05,0.849L6.464,4.005C5.554,4.73,4.73,5.554,4.005,6.464l1.994,4.192c-0.347,0.648-0.632,1.334-0.849,2.05l-4.378,1.557C0.708,14.834,0.667,15.412,0.667,16s0.041,1.165,0.105,1.736l4.378,1.558c0.217,0.715,0.502,1.401,0.849,2.049l-1.994,4.193c0.725,0.909,1.549,1.733,2.459,2.458l4.192-1.993c0.648,0.347,1.334,0.633,2.05,0.851l1.557,4.377c0.571,0.064,1.148,0.104,1.737,0.104c0.588,0,1.165-0.04,1.736-0.104l1.558-4.377c0.715-0.218,1.399-0.504,2.049-0.851l4.193,1.993c0.909-0.725,1.733-1.549,2.458-2.458l-1.993-4.193c0.347-0.647,0.633-1.334,0.851-2.049L31.229,17.736zM16,20.871c-2.69,0-4.872-2.182-4.872-4.871c0-2.69,2.182-4.872,4.872-4.872c2.689,0,4.871,2.182,4.871,4.872C20.871,18.689,18.689,20.871,16,20.871z"></path><title>Link options.</title></g></g></g></g><g   id="j_226" ><path  stroke="#707070" d="M 1008 1100 L 633 1400" id="v-2558" stroke-width="2" stroke-dasharray="30 30" fill="none" style="opacity: 1;"></path><path  fill="black" stroke="black" d="M 0 0 0 0" transform="matrix(-0.7808688416748546,0.6246950072646418,-0.6246950072646418,-0.7808688416748546,1007.5,1100)"></path><path  fill="#707070" stroke="#707070" d="M 20 0 L 0 10 L 20 20 z" id="v-2560" transform="matrix(0.7808686753084834,-0.624695215222571,0.624695215222571,0.7808686753084834,626.253076915002,1392.1913171569533)" style="opacity: 1;"></path><path  d="M 1008 1100 L 633 1400" id="v-2559" fill="none" style="cursor: auto; pointer-events: visiblepainted;"></path><g ><g id="v-2549"  label-idx="0" cursor="move" transform="matrix(1,0,0,1,820.5,1250)" style="cursor: default; opacity: 1;"><rect joint-selector="rect" id="v-2553" fill="#ffffff" rx="3" ry="3" stroke="#ffffff" stroke-width="20px" pointer-events="none" width="53.83759307861328" height="34.63687515258789" transform="matrix(1,0,0,1,-26.8,-17.3)"></rect><text joint-selector="text" id="v-2552" font-size="24px" xml:space="preserve" y="0.8em" fill="#707070" text-anchor="middle" pointer-events="none" font-family="Open Sans" font-weight="normal" transform="matrix(1,0,0,1,0,-9.6)"><tspan dy="0" >Uses</tspan></text></g><g id="v-2550"  label-idx="1" cursor="move" transform="matrix(1,0,0,1,820.5,1277)" style="cursor: default; opacity: 1;"><rect joint-selector="rect" id="v-2555" fill="#ffffff" rx="3" ry="3" pointer-events="none" width="125.96996688842773" height="23.091249465942383" transform="matrix(1,0,0,1,-61.9,-11.5)"></rect><text joint-selector="text" id="v-2554" font-size="17px" xml:space="preserve" y="0.8em" fill="#707070" text-anchor="middle" pointer-events="none" font-family="Open Sans" font-weight="normal" transform="matrix(1,0,0,1,0,-5.9)"><tspan dy="0" >[Functions (C#)]</tspan></text></g><g id="v-2551"  label-idx="2" cursor="move" transform="matrix(1,0,0,1,810.5,1286.25)" style="cursor: default; opacity: 1;"><rect joint-selector="rect" id="v-2557" fill="#ffffff" rx="3" ry="3"  width="0" height="0" transform="matrix(1,0,0,1,0,0)" display="none"></rect><text joint-selector="text" id="v-2556" fill="#000000" font-size="14" text-anchor="middle" pointer-events="none"></text></g></g><g  display="none" style="display: none;"></g><g  id="v-2562" display="none"><g  id="v-2547"><path  end="source" d="M 26 0 L 0 13 L 26 26 z"></path></g><g  id="v-2548"><path  end="target" d="M 26 0 L 0 13 L 26 26 z"></path></g></g><g  id="v-2561" display="none"><g  id="v-2546" transform="translate(976.7652476222788, 1124.9878019021771) "><g  event="remove"><circle r="11"></circle><path transform="scale(.8) translate(-16, -16)" d="M24.778,21.419 19.276,15.917 24.777,10.415 21.949,7.585 16.447,13.087 10.945,7.585 8.117,10.415 13.618,15.917 8.116,21.419 10.946,24.248 16.447,18.746 21.948,24.248z"></path><title>Remove link.</title></g><g  event="link:options"><circle r="11" transform="translate(25)"></circle><path fill="white" transform="scale(.55) translate(29, -16)" d="M31.229,17.736c0.064-0.571,0.104-1.148,0.104-1.736s-0.04-1.166-0.104-1.737l-4.377-1.557c-0.218-0.716-0.504-1.401-0.851-2.05l1.993-4.192c-0.725-0.91-1.549-1.734-2.458-2.459l-4.193,1.994c-0.647-0.347-1.334-0.632-2.049-0.849l-1.558-4.378C17.165,0.708,16.588,0.667,16,0.667s-1.166,0.041-1.737,0.105L12.707,5.15c-0.716,0.217-1.401,0.502-2.05,0.849L6.464,4.005C5.554,4.73,4.73,5.554,4.005,6.464l1.994,4.192c-0.347,0.648-0.632,1.334-0.849,2.05l-4.378,1.557C0.708,14.834,0.667,15.412,0.667,16s0.041,1.165,0.105,1.736l4.378,1.558c0.217,0.715,0.502,1.401,0.849,2.049l-1.994,4.193c0.725,0.909,1.549,1.733,2.459,2.458l4.192-1.993c0.648,0.347,1.334,0.633,2.05,0.851l1.557,4.377c0.571,0.064,1.148,0.104,1.737,0.104c0.588,0,1.165-0.04,1.736-0.104l1.558-4.377c0.715-0.218,1.399-0.504,2.049-0.851l4.193,1.993c0.909-0.725,1.733-1.549,2.458-2.458l-1.993-4.193c0.347-0.647,0.633-1.334,0.851-2.049L31.229,17.736zM16,20.871c-2.69,0-4.872-2.182-4.872-4.871c0-2.69,2.182-4.872,4.872-4.872c2.689,0,4.871,2.182,4.871,4.872C20.871,18.689,18.689,20.871,16,20.871z"></path><title>Link options.</title></g></g></g></g><g   id="j_227" ><path  stroke="#707070" d="M 1195 1100 L 1195 1400" id="v-2575" stroke-width="2" stroke-dasharray="30 30" fill="none" style="opacity: 1;"></path><path  fill="black" stroke="black" d="M 0 0 0 0" transform="matrix(6.123233995736766e-17,1,-1,6.123233995736766e-17,1195,1100)"></path><path  fill="#707070" stroke="#707070" d="M 20 0 L 0 10 L 20 20 z" id="v-2577" transform="matrix(-1.8369701987210297e-16,-1,1,-1.8369701987210297e-16,1185,1400)" style="opacity: 1;"></path><path  d="M 1195 1100 L 1195 1400" id="v-2576" fill="none" style="cursor: auto; pointer-events: visiblepainted;"></path><g ><g id="v-2566"  label-idx="0" cursor="move" transform="matrix(1,0,0,1,1195,1250)" style="cursor: default; opacity: 1;"><rect joint-selector="rect" id="v-2570" fill="#ffffff" rx="3" ry="3" stroke="#ffffff" stroke-width="20px" pointer-events="none" width="53.83759307861328" height="34.63687515258789" transform="matrix(1,0,0,1,-26.8,-17.3)"></rect><text joint-selector="text" id="v-2569" font-size="24px" xml:space="preserve" y="0.8em" fill="#707070" text-anchor="middle" pointer-events="none" font-family="Open Sans" font-weight="normal" transform="matrix(1,0,0,1,0,-9.6)"><tspan dy="0" >Uses</tspan></text></g><g id="v-2567"  label-idx="1" cursor="move" transform="matrix(1,0,0,1,1195,1277)" style="cursor: default; opacity: 1;"><rect joint-selector="rect" id="v-2572" fill="#ffffff" rx="3" ry="3" pointer-events="none" width="200.39146423339844" height="23.091249465942383" transform="matrix(1,0,0,1,-99.1,-11.5)"></rect><text joint-selector="text" id="v-2571" font-size="17px" xml:space="preserve" y="0.8em" fill="#707070" text-anchor="middle" pointer-events="none" font-family="Open Sans" font-weight="normal" transform="matrix(1,0,0,1,0,-5.9)"><tspan dy="0" >[Plain-Old Instances (C#)]</tspan></text></g><g id="v-2568"  label-idx="2" cursor="move" transform="matrix(1,0,0,1,1185,1286.25)" style="cursor: default; opacity: 1;"><rect joint-selector="rect" id="v-2574" fill="#ffffff" rx="3" ry="3"  width="0" height="0" transform="matrix(1,0,0,1,0,0)" display="none"></rect><text joint-selector="text" id="v-2573" fill="#000000" font-size="14" text-anchor="middle" pointer-events="none"></text></g></g><g  display="none" style="display: none;"></g><g  id="v-2579" display="none"><g  id="v-2564"><path  end="source" d="M 26 0 L 0 13 L 26 26 z"></path></g><g  id="v-2565"><path  end="target" d="M 26 0 L 0 13 L 26 26 z"></path></g></g><g  id="v-2578" display="none"><g  id="v-2563" transform="translate(1195, 1140) "><g  event="remove"><circle r="11"></circle><path transform="scale(.8) translate(-16, -16)" d="M24.778,21.419 19.276,15.917 24.777,10.415 21.949,7.585 16.447,13.087 10.945,7.585 8.117,10.415 13.618,15.917 8.116,21.419 10.946,24.248 16.447,18.746 21.948,24.248z"></path><title>Remove link.</title></g><g  event="link:options"><circle r="11" transform="translate(25)"></circle><path fill="white" transform="scale(.55) translate(29, -16)" d="M31.229,17.736c0.064-0.571,0.104-1.148,0.104-1.736s-0.04-1.166-0.104-1.737l-4.377-1.557c-0.218-0.716-0.504-1.401-0.851-2.05l1.993-4.192c-0.725-0.91-1.549-1.734-2.458-2.459l-4.193,1.994c-0.647-0.347-1.334-0.632-2.049-0.849l-1.558-4.378C17.165,0.708,16.588,0.667,16,0.667s-1.166,0.041-1.737,0.105L12.707,5.15c-0.716,0.217-1.401,0.502-2.05,0.849L6.464,4.005C5.554,4.73,4.73,5.554,4.005,6.464l1.994,4.192c-0.347,0.648-0.632,1.334-0.849,2.05l-4.378,1.557C0.708,14.834,0.667,15.412,0.667,16s0.041,1.165,0.105,1.736l4.378,1.558c0.217,0.715,0.502,1.401,0.849,2.049l-1.994,4.193c0.725,0.909,1.549,1.733,2.459,2.458l4.192-1.993c0.648,0.347,1.334,0.633,2.05,0.851l1.557,4.377c0.571,0.064,1.148,0.104,1.737,0.104c0.588,0,1.165-0.04,1.736-0.104l1.558-4.377c0.715-0.218,1.399-0.504,2.049-0.851l4.193,1.993c0.909-0.725,1.733-1.549,2.458-2.458l-1.993-4.193c0.347-0.647,0.633-1.334,0.851-2.049L31.229,17.736zM16,20.871c-2.69,0-4.872-2.182-4.872-4.871c0-2.69,2.182-4.872,4.872-4.872c2.689,0,4.871,2.182,4.871,4.872C20.871,18.689,18.689,20.871,16,20.871z"></path><title>Link options.</title></g></g></g></g><g   id="j_228" ><path  stroke="#707070" d="M 1599 500 L 1896 1400" id="v-2592" stroke-width="2" stroke-dasharray="30 30" fill="none" style="opacity: 1;"></path><path  fill="black" stroke="black" d="M 0 0 0 0" transform="matrix(0.3133775161011072,0.9496286286766529,-0.9496286286766529,0.3133775161011072,1598.5,500)"></path><path  fill="#707070" stroke="#707070" d="M 20 0 L 0 10 L 20 20 z" id="v-2594" transform="matrix(-0.3133775161011073,-0.9496286286766529,0.9496286286766529,-0.3133775161011073,1886.0036998117446,1403.1337235571525)" style="opacity: 1;"></path><path  d="M 1599 500 L 1896 1400" id="v-2593" fill="none" style="cursor: auto; pointer-events: visiblepainted;"></path><g ><g id="v-2583"  label-idx="0" cursor="move" transform="matrix(1,0,0,1,1747.5,950)" style="cursor: default; opacity: 1;"><rect joint-selector="rect" id="v-2587" fill="#ffffff" rx="3" ry="3" stroke="#ffffff" stroke-width="20px" pointer-events="none" width="88.02323150634766" height="34.63687515258789" transform="matrix(1,0,0,1,-43.7,-17.3)"></rect><text joint-selector="text" id="v-2586" font-size="24px" xml:space="preserve" y="0.8em" fill="#707070" text-anchor="middle" pointer-events="none" font-family="Open Sans" font-weight="normal" transform="matrix(1,0,0,1,0,-9.6)"><tspan dy="0" >Signs-In</tspan></text></g><g id="v-2584"  label-idx="1" cursor="move" transform="matrix(1,0,0,1,1747.5,977)" style="cursor: default; opacity: 1;"><rect joint-selector="rect" id="v-2589" fill="#ffffff" rx="3" ry="3" pointer-events="none" width="503.484375" height="23.091249465942383" transform="matrix(1,0,0,1,-250.7,-11.5)"></rect><text joint-selector="text" id="v-2588" font-size="17px" xml:space="preserve" y="0.8em" fill="#707070" text-anchor="middle" pointer-events="none" font-family="Open Sans" font-weight="normal" transform="matrix(1,0,0,1,0,-5.9)"><tspan dy="0" >[HTTPS Get/Post (Request: Query Parameters, Response: JSON)]</tspan></text></g><g id="v-2585"  label-idx="2" cursor="move" transform="matrix(1,0,0,1,1737.5,986.25)" style="cursor: default; opacity: 1;"><rect joint-selector="rect" id="v-2591" fill="#ffffff" rx="3" ry="3"  width="0" height="0" transform="matrix(1,0,0,1,0,0)" display="none"></rect><text joint-selector="text" id="v-2590" fill="#000000" font-size="14" text-anchor="middle" pointer-events="none"></text></g></g><g  display="none" style="display: none;"></g><g  id="v-2596" display="none"><g  id="v-2581"><path  end="source" d="M 26 0 L 0 13 L 26 26 z"></path></g><g  id="v-2582"><path  end="target" d="M 26 0 L 0 13 L 26 26 z"></path></g></g><g  id="v-2595" display="none"><g  id="v-2580" transform="translate(1611.535098168156, 537.9851459641093) "><g  event="remove"><circle r="11"></circle><path transform="scale(.8) translate(-16, -16)" d="M24.778,21.419 19.276,15.917 24.777,10.415 21.949,7.585 16.447,13.087 10.945,7.585 8.117,10.415 13.618,15.917 8.116,21.419 10.946,24.248 16.447,18.746 21.948,24.248z"></path><title>Remove link.</title></g><g  event="link:options"><circle r="11" transform="translate(25)"></circle><path fill="white" transform="scale(.55) translate(29, -16)" d="M31.229,17.736c0.064-0.571,0.104-1.148,0.104-1.736s-0.04-1.166-0.104-1.737l-4.377-1.557c-0.218-0.716-0.504-1.401-0.851-2.05l1.993-4.192c-0.725-0.91-1.549-1.734-2.458-2.459l-4.193,1.994c-0.647-0.347-1.334-0.632-2.049-0.849l-1.558-4.378C17.165,0.708,16.588,0.667,16,0.667s-1.166,0.041-1.737,0.105L12.707,5.15c-0.716,0.217-1.401,0.502-2.05,0.849L6.464,4.005C5.554,4.73,4.73,5.554,4.005,6.464l1.994,4.192c-0.347,0.648-0.632,1.334-0.849,2.05l-4.378,1.557C0.708,14.834,0.667,15.412,0.667,16s0.041,1.165,0.105,1.736l4.378,1.558c0.217,0.715,0.502,1.401,0.849,2.049l-1.994,4.193c0.725,0.909,1.549,1.733,2.459,2.458l4.192-1.993c0.648,0.347,1.334,0.633,2.05,0.851l1.557,4.377c0.571,0.064,1.148,0.104,1.737,0.104c0.588,0,1.165-0.04,1.736-0.104l1.558-4.377c0.715-0.218,1.399-0.504,2.049-0.851l4.193,1.993c0.909-0.725,1.733-1.549,2.458-2.458l-1.993-4.193c0.347-0.647,0.633-1.334,0.851-2.049L31.229,17.736zM16,20.871c-2.69,0-4.872-2.182-4.872-4.871c0-2.69,2.182-4.872,4.872-4.872c2.689,0,4.871,2.182,4.871,4.872C20.871,18.689,18.689,20.871,16,20.871z"></path><title>Link options.</title></g></g></g></g><g   id="j_229" ><path  stroke="#707070" d="M 1461 500 L 1284 800" id="v-2609" stroke-width="2" stroke-dasharray="30 30" fill="none" style="opacity: 1;"></path><path  fill="black" stroke="black" d="M 0 0 0 0" transform="matrix(-0.5081488437597285,0.861269268339264,-0.861269268339264,-0.5081488437597285,1460.5,500)"></path><path  fill="#707070" stroke="#707070" d="M 20 0 L 0 10 L 20 20 z" id="v-2611" transform="matrix(0.5081490731295905,-0.8612691330110107,0.8612691330110107,0.5081490731295905,1274.887360907344,794.9185297003767)" style="opacity: 1;"></path><path  d="M 1461 500 L 1284 800" id="v-2610" fill="none" style="cursor: auto; pointer-events: visiblepainted;"></path><g ><g id="v-2600"  label-idx="0" cursor="move" transform="matrix(1,0,0,1,1372.5,650)" style="cursor: default; opacity: 1;"><rect joint-selector="rect" id="v-2604" fill="#ffffff" rx="3" ry="3" stroke="#ffffff" stroke-width="20px" pointer-events="none" width="102.45173645019531" height="34.63687515258789" transform="matrix(1,0,0,1,-51.2,-17.3)"></rect><text joint-selector="text" id="v-2603" font-size="24px" xml:space="preserve" y="0.8em" fill="#707070" text-anchor="middle" pointer-events="none" font-family="Open Sans" font-weight="normal" transform="matrix(1,0,0,1,0,-9.6)"><tspan dy="0" >Requests</tspan></text></g><g id="v-2601"  label-idx="1" cursor="move" transform="matrix(1,0,0,1,1372.5,677)" style="cursor: default; opacity: 1;"><rect joint-selector="rect" id="v-2606" fill="#ffffff" rx="3" ry="3" pointer-events="none" width="437.93914794921875" height="23.091249465942383" transform="matrix(1,0,0,1,-217.9,-11.5)"></rect><text joint-selector="text" id="v-2605" font-size="17px" xml:space="preserve" y="0.8em" fill="#707070" text-anchor="middle" pointer-events="none" font-family="Open Sans" font-weight="normal" transform="matrix(1,0,0,1,0,-5.9)"><tspan dy="0" >[GraphQL (HTTPS Post, Request/Response Body: JSON)]</tspan></text></g><g id="v-2602"  label-idx="2" cursor="move" transform="matrix(1,0,0,1,1362.5,686.25)" style="cursor: default; opacity: 1;"><rect joint-selector="rect" id="v-2608" fill="#ffffff" rx="3" ry="3"  width="0" height="0" transform="matrix(1,0,0,1,0,0)" display="none"></rect><text joint-selector="text" id="v-2607" fill="#000000" font-size="14" text-anchor="middle" pointer-events="none"></text></g></g><g  display="none" style="display: none;"></g><g  id="v-2613" display="none"><g  id="v-2598"><path  end="source" d="M 26 0 L 0 13 L 26 26 z"></path></g><g  id="v-2599"><path  end="target" d="M 26 0 L 0 13 L 26 26 z"></path></g></g><g  id="v-2612" display="none"><g  id="v-2597" transform="translate(1440.6740455208687, 534.4507703036127) "><g  event="remove"><circle r="11"></circle><path transform="scale(.8) translate(-16, -16)" d="M24.778,21.419 19.276,15.917 24.777,10.415 21.949,7.585 16.447,13.087 10.945,7.585 8.117,10.415 13.618,15.917 8.116,21.419 10.946,24.248 16.447,18.746 21.948,24.248z"></path><title>Remove link.</title></g><g  event="link:options"><circle r="11" transform="translate(25)"></circle><path fill="white" transform="scale(.55) translate(29, -16)" d="M31.229,17.736c0.064-0.571,0.104-1.148,0.104-1.736s-0.04-1.166-0.104-1.737l-4.377-1.557c-0.218-0.716-0.504-1.401-0.851-2.05l1.993-4.192c-0.725-0.91-1.549-1.734-2.458-2.459l-4.193,1.994c-0.647-0.347-1.334-0.632-2.049-0.849l-1.558-4.378C17.165,0.708,16.588,0.667,16,0.667s-1.166,0.041-1.737,0.105L12.707,5.15c-0.716,0.217-1.401,0.502-2.05,0.849L6.464,4.005C5.554,4.73,4.73,5.554,4.005,6.464l1.994,4.192c-0.347,0.648-0.632,1.334-0.849,2.05l-4.378,1.557C0.708,14.834,0.667,15.412,0.667,16s0.041,1.165,0.105,1.736l4.378,1.558c0.217,0.715,0.502,1.401,0.849,2.049l-1.994,4.193c0.725,0.909,1.549,1.733,2.459,2.458l4.192-1.993c0.648,0.347,1.334,0.633,2.05,0.851l1.557,4.377c0.571,0.064,1.148,0.104,1.737,0.104c0.588,0,1.165-0.04,1.736-0.104l1.558-4.377c0.715-0.218,1.399-0.504,2.049-0.851l4.193,1.993c0.909-0.725,1.733-1.549,2.458-2.458l-1.993-4.193c0.347-0.647,0.633-1.334,0.851-2.049L31.229,17.736zM16,20.871c-2.69,0-4.872-2.182-4.872-4.871c0-2.69,2.182-4.872,4.872-4.872c2.689,0,4.871,2.182,4.871,4.872C20.871,18.689,18.689,20.871,16,20.871z"></path><title>Link options.</title></g></g></g></g><g   id="j_230" ><path  stroke="#707070" d="M 1195 2300 L 1195 2600" id="v-2626" stroke-width="2" stroke-dasharray="30 30" fill="none" style="opacity: 1;"></path><path  fill="black" stroke="black" d="M 0 0 0 0" transform="matrix(6.123233995736766e-17,1,-1,6.123233995736766e-17,1195,2300)"></path><path  fill="#707070" stroke="#707070" d="M 20 0 L 0 10 L 20 20 z" id="v-2628" transform="matrix(-1.8369701987210297e-16,-1,1,-1.8369701987210297e-16,1185,2600)" style="opacity: 1;"></path><path  d="M 1195 2300 L 1195 2600" id="v-2627" fill="none" style="cursor: auto; pointer-events: visiblepainted;"></path><g ><g id="v-2617"  label-idx="0" cursor="move" transform="matrix(1,0,0,1,1195,2450)" style="cursor: default; opacity: 1;"><rect joint-selector="rect" id="v-2621" fill="#ffffff" rx="3" ry="3" stroke="#ffffff" stroke-width="20px" pointer-events="none" width="87.540283203125" height="34.63687515258789" transform="matrix(1,0,0,1,-43.7,-17.3)"></rect><text joint-selector="text" id="v-2620" font-size="24px" xml:space="preserve" y="0.8em" fill="#707070" text-anchor="middle" pointer-events="none" font-family="Open Sans" font-weight="normal" transform="matrix(1,0,0,1,0,-9.6)"><tspan dy="0" >Queries</tspan></text></g><g id="v-2618"  label-idx="1" cursor="move" transform="matrix(1,0,0,1,1195,2477)" style="cursor: default; opacity: 1;"><rect joint-selector="rect" id="v-2623" fill="#ffffff" rx="3" ry="3" pointer-events="none" width="430.77685546875" height="23.091249465942383" transform="matrix(1,0,0,1,-214.3,-11.5)"></rect><text joint-selector="text" id="v-2622" font-size="17px" xml:space="preserve" y="0.8em" fill="#707070" text-anchor="middle" pointer-events="none" font-family="Open Sans" font-weight="normal" transform="matrix(1,0,0,1,0,-5.9)"><tspan dy="0" >[Structured Query Language (Query: SQL, Result: CSV)]</tspan></text></g><g id="v-2619"  label-idx="2" cursor="move" transform="matrix(1,0,0,1,1185,2486.25)" style="cursor: default; opacity: 1;"><rect joint-selector="rect" id="v-2625" fill="#ffffff" rx="3" ry="3"  width="0" height="0" transform="matrix(1,0,0,1,0,0)" display="none"></rect><text joint-selector="text" id="v-2624" fill="#000000" font-size="14" text-anchor="middle" pointer-events="none"></text></g></g><g  display="none" style="display: none;"></g><g  id="v-2630" display="none"><g  id="v-2615"><path  end="source" d="M 26 0 L 0 13 L 26 26 z"></path></g><g  id="v-2616"><path  end="target" d="M 26 0 L 0 13 L 26 26 z"></path></g></g><g  id="v-2629" display="none"><g  id="v-2614" transform="translate(1195, 2340) "><g  event="remove"><circle r="11"></circle><path transform="scale(.8) translate(-16, -16)" d="M24.778,21.419 19.276,15.917 24.777,10.415 21.949,7.585 16.447,13.087 10.945,7.585 8.117,10.415 13.618,15.917 8.116,21.419 10.946,24.248 16.447,18.746 21.948,24.248z"></path><title>Remove link.</title></g><g  event="link:options"><circle r="11" transform="translate(25)"></circle><path fill="white" transform="scale(.55) translate(29, -16)" d="M31.229,17.736c0.064-0.571,0.104-1.148,0.104-1.736s-0.04-1.166-0.104-1.737l-4.377-1.557c-0.218-0.716-0.504-1.401-0.851-2.05l1.993-4.192c-0.725-0.91-1.549-1.734-2.458-2.459l-4.193,1.994c-0.647-0.347-1.334-0.632-2.049-0.849l-1.558-4.378C17.165,0.708,16.588,0.667,16,0.667s-1.166,0.041-1.737,0.105L12.707,5.15c-0.716,0.217-1.401,0.502-2.05,0.849L6.464,4.005C5.554,4.73,4.73,5.554,4.005,6.464l1.994,4.192c-0.347,0.648-0.632,1.334-0.849,2.05l-4.378,1.557C0.708,14.834,0.667,15.412,0.667,16s0.041,1.165,0.105,1.736l4.378,1.558c0.217,0.715,0.502,1.401,0.849,2.049l-1.994,4.193c0.725,0.909,1.549,1.733,2.459,2.458l4.192-1.993c0.648,0.347,1.334,0.633,2.05,0.851l1.557,4.377c0.571,0.064,1.148,0.104,1.737,0.104c0.588,0,1.165-0.04,1.736-0.104l1.558-4.377c0.715-0.218,1.399-0.504,2.049-0.851l4.193,1.993c0.909-0.725,1.733-1.549,2.458-2.458l-1.993-4.193c0.347-0.647,0.633-1.334,0.851-2.049L31.229,17.736zM16,20.871c-2.69,0-4.872-2.182-4.872-4.871c0-2.69,2.182-4.872,4.872-4.872c2.689,0,4.871,2.182,4.871,4.872C20.871,18.689,18.689,20.871,16,20.871z"></path><title>Link options.</title></g></g></g></g><g   id="j_231" ><path  stroke="#707070" d="M 1758 1700 L 1383 2000" id="v-2646" stroke-width="2" stroke-dasharray="30 30" fill="none" style="opacity: 1;"></path><path  fill="black" stroke="black" d="M 0 0 0 0" transform="matrix(-0.7808688416748546,0.6246950072646418,-0.6246950072646418,-0.7808688416748546,1757.5,1700)"></path><path  fill="#707070" stroke="#707070" d="M 20 0 L 0 10 L 20 20 z" id="v-2648" transform="matrix(0.7808686753084834,-0.624695215222571,0.624695215222571,0.7808686753084834,1376.2530769150019,1992.1913171569533)" style="opacity: 1;"></path><path  d="M 1758 1700 L 1383 2000" id="v-2647" fill="none" style="cursor: auto; pointer-events: visiblepainted;"></path><g ><g id="v-2637"  label-idx="0" cursor="move" transform="matrix(1,0,0,1,1570.5,1850)" style="cursor: default; opacity: 1;"><rect joint-selector="rect" id="v-2641" fill="#ffffff" rx="3" ry="3" stroke="#ffffff" stroke-width="20px" pointer-events="none" width="107.23516845703125" height="92.23687744140625" transform="matrix(1,0,0,1,-52.6,-46.1)"></rect><text joint-selector="text" id="v-2640" font-size="24px" xml:space="preserve" y="0.8em" fill="#707070" text-anchor="middle" pointer-events="none" font-family="Open Sans" font-weight="normal" transform="matrix(1,0,0,1,0,-38.4)"><tspan dy="0" >Accesses</tspan><tspan dy="1.2em" x="0" >Database</tspan><tspan dy="1.2em" x="0" >Through</tspan></text></g><g id="v-2638"  label-idx="1" cursor="move" transform="matrix(1,0,0,1,1570.5,1907)" style="cursor: default; opacity: 1;"><rect joint-selector="rect" id="v-2643" fill="#ffffff" rx="3" ry="3" pointer-events="none" width="425.982666015625" height="23.091249465942383" transform="matrix(1,0,0,1,-211.9,-11.5)"></rect><text joint-selector="text" id="v-2642" font-size="17px" xml:space="preserve" y="0.8em" fill="#707070" text-anchor="middle" pointer-events="none" font-family="Open Sans" font-weight="normal" transform="matrix(1,0,0,1,0,-5.9)"><tspan dy="0" >[Entity Framework Core (Functional C#, C# Instances)]</tspan></text></g><g id="v-2639"  label-idx="2" cursor="move" transform="matrix(1,0,0,1,1560.5,1916.25)" style="cursor: default; opacity: 1;"><rect joint-selector="rect" id="v-2645" fill="#ffffff" rx="3" ry="3"  width="0" height="0" transform="matrix(1,0,0,1,0,0)" display="none"></rect><text joint-selector="text" id="v-2644" fill="#000000" font-size="14" text-anchor="middle" pointer-events="none"></text></g></g><g  display="none" style="display: none;"></g><g  id="v-2650" display="none"><g  id="v-2635"><path  end="source" d="M 26 0 L 0 13 L 26 26 z"></path></g><g  id="v-2636"><path  end="target" d="M 26 0 L 0 13 L 26 26 z"></path></g></g><g  id="v-2649" display="none"><g  id="v-2634" transform="translate(1726.7652476222788, 1724.9878019021771) "><g  event="remove"><circle r="11"></circle><path transform="scale(.8) translate(-16, -16)" d="M24.778,21.419 19.276,15.917 24.777,10.415 21.949,7.585 16.447,13.087 10.945,7.585 8.117,10.415 13.618,15.917 8.116,21.419 10.946,24.248 16.447,18.746 21.948,24.248z"></path><title>Remove link.</title></g><g  event="link:options"><circle r="11" transform="translate(25)"></circle><path fill="white" transform="scale(.55) translate(29, -16)" d="M31.229,17.736c0.064-0.571,0.104-1.148,0.104-1.736s-0.04-1.166-0.104-1.737l-4.377-1.557c-0.218-0.716-0.504-1.401-0.851-2.05l1.993-4.192c-0.725-0.91-1.549-1.734-2.458-2.459l-4.193,1.994c-0.647-0.347-1.334-0.632-2.049-0.849l-1.558-4.378C17.165,0.708,16.588,0.667,16,0.667s-1.166,0.041-1.737,0.105L12.707,5.15c-0.716,0.217-1.401,0.502-2.05,0.849L6.464,4.005C5.554,4.73,4.73,5.554,4.005,6.464l1.994,4.192c-0.347,0.648-0.632,1.334-0.849,2.05l-4.378,1.557C0.708,14.834,0.667,15.412,0.667,16s0.041,1.165,0.105,1.736l4.378,1.558c0.217,0.715,0.502,1.401,0.849,2.049l-1.994,4.193c0.725,0.909,1.549,1.733,2.459,2.458l4.192-1.993c0.648,0.347,1.334,0.633,2.05,0.851l1.557,4.377c0.571,0.064,1.148,0.104,1.737,0.104c0.588,0,1.165-0.04,1.736-0.104l1.558-4.377c0.715-0.218,1.399-0.504,2.049-0.851l4.193,1.993c0.909-0.725,1.733-1.549,2.458-2.458l-1.993-4.193c0.347-0.647,0.633-1.334,0.851-2.049L31.229,17.736zM16,20.871c-2.69,0-4.872-2.182-4.872-4.871c0-2.69,2.182-4.872,4.872-4.872c2.689,0,4.871,2.182,4.871,4.872C20.871,18.689,18.689,20.871,16,20.871z"></path><title>Link options.</title></g></g></g></g></g><g ></g><g ></g><g ></g></g></svg>